<?xml version="1.0" encoding="UTF-8" standalone="no"?>
<!-- Created with Inkscape (http://www.inkscape.org/) -->

<svg
   version="1.1"
   id="svg69"
   width="86.25425"
   height="86.253311"
   viewBox="0 0 86.25425 86.253311"
   sodipodi:docname="logo_etitulacion.svg"
   inkscape:version="1.1.1 (3bf5ae0d25, 2021-09-20)"
   xmlns:inkscape="http://www.inkscape.org/namespaces/inkscape"
   xmlns:sodipodi="http://sodipodi.sourceforge.net/DTD/sodipodi-0.dtd"
   xmlns="http://www.w3.org/2000/svg"
   xmlns:svg="http://www.w3.org/2000/svg">
  <defs
     id="defs73">
    <clipPath
       clipPathUnits="userSpaceOnUse"
       id="clipPath77017">
      <circle
         style="opacity:0.93;fill:#ffffff;fill-opacity:1;stroke-width:1.12563"
         id="circle77019"
         cx="193.20689"
         cy="42.755692"
         r="56.692913" />
    </clipPath>
    <clipPath
       clipPathUnits="userSpaceOnUse"
       id="clipPath77021">
      <circle
         style="opacity:0.93;fill:#ffffff;fill-opacity:1;stroke-width:1.12563"
         id="circle77023"
         cx="193.20689"
         cy="42.755692"
         r="56.692913" />
    </clipPath>
    <clipPath
       clipPathUnits="userSpaceOnUse"
       id="clipPath77025">
      <circle
         style="opacity:0.93;fill:#ffffff;fill-opacity:1;stroke-width:1.12563"
         id="circle77027"
         cx="193.20689"
         cy="42.755692"
         r="56.692913" />
    </clipPath>
    <clipPath
       clipPathUnits="userSpaceOnUse"
       id="clipPath77029">
      <circle
         style="opacity:0.93;fill:#ffffff;fill-opacity:1;stroke-width:1.12563"
         id="circle77031"
         cx="193.20689"
         cy="42.755692"
         r="56.692913" />
    </clipPath>
    <clipPath
       clipPathUnits="userSpaceOnUse"
       id="clipPath77033">
      <circle
         style="opacity:0.93;fill:#ffffff;fill-opacity:1;stroke-width:1.12563"
         id="circle77035"
         cx="193.20689"
         cy="42.755692"
         r="56.692913" />
    </clipPath>
    <clipPath
       clipPathUnits="userSpaceOnUse"
       id="clipPath77037">
      <circle
         style="opacity:0.93;fill:#ffffff;fill-opacity:1;stroke-width:1.12563"
         id="circle77039"
         cx="193.20689"
         cy="42.755692"
         r="56.692913" />
    </clipPath>
    <clipPath
       clipPathUnits="userSpaceOnUse"
       id="clipPath77041">
      <circle
         style="opacity:0.93;fill:#ffffff;fill-opacity:1;stroke-width:1.12563"
         id="circle77043"
         cx="193.20689"
         cy="42.755692"
         r="56.692913" />
    </clipPath>
    <clipPath
       clipPathUnits="userSpaceOnUse"
       id="clipPath77045">
      <circle
         style="opacity:0.93;fill:#ffffff;fill-opacity:1;stroke-width:1.12563"
         id="circle77047"
         cx="193.20689"
         cy="42.755692"
         r="56.692913" />
    </clipPath>
    <clipPath
       clipPathUnits="userSpaceOnUse"
       id="clipPath77049">
      <circle
         style="opacity:0.93;fill:#ffffff;fill-opacity:1;stroke-width:1.12563"
         id="circle77051"
         cx="193.20689"
         cy="42.755692"
         r="56.692913" />
    </clipPath>
    <clipPath
       clipPathUnits="userSpaceOnUse"
       id="clipPath77053">
      <circle
         style="opacity:0.93;fill:#ffffff;fill-opacity:1;stroke-width:1.12563"
         id="circle77055"
         cx="193.20689"
         cy="42.755692"
         r="56.692913" />
    </clipPath>
    <clipPath
       clipPathUnits="userSpaceOnUse"
       id="clipPath77057">
      <circle
         style="opacity:0.93;fill:#ffffff;fill-opacity:1;stroke-width:1.12563"
         id="circle77059"
         cx="193.20689"
         cy="42.755692"
         r="56.692913" />
    </clipPath>
  </defs>
  <sodipodi:namedview
     id="namedview71"
     pagecolor="#ffffff"
     bordercolor="#666666"
     borderopacity="1.0"
     inkscape:pageshadow="2"
     inkscape:pageopacity="0.0"
     inkscape:pagecheckerboard="0"
     showgrid="false"
     inkscape:snap-grids="true"
     fit-margin-top="0"
     fit-margin-left="0"
     fit-margin-right="0"
     fit-margin-bottom="0"
     inkscape:zoom="4"
     inkscape:cx="28.125"
     inkscape:cy="45.375"
     inkscape:window-width="1920"
     inkscape:window-height="1011"
     inkscape:window-x="0"
     inkscape:window-y="0"
     inkscape:window-maximized="1"
     inkscape:current-layer="g75" />
  <g
     inkscape:groupmode="layer"
     inkscape:label="Image"
     id="g75"
     transform="translate(-138.19091,-6.1527328)">
    <circle
       style="opacity:0.93;fill:#ffffff;fill-opacity:1;stroke-width:0.856273"
       id="circle76927"
       cx="181.31757"
       cy="49.279388"
       r="43.126656" />
    <path
       style="fill:#000000;stroke:none"
       d="m 23,49 v 1 c 21.3678,3.1439 41.4527,8.4029 63,1.6528 12.5228,-3.9231 23.598,-15.2072 36,-17.9105 5.223,-1.1385 10.561,2.9897 15,5.1497 9.266,4.5092 20.358,10.0141 31,9.0023 13.189,-1.2539 11.606,-17.2962 21.015,-23.287 5.085,-3.2375 9.692,1.6586 14.985,1.1358 5.284,-0.5219 10.167,-4.7203 15,-6.7431 L 208.363,30.0432 195.666,61 168,96 C 186.578,87.3365 193.274,63.0382 204.928,48.0895 211.64,39.4811 222.676,35.9017 229,27 l -24,17 c 1.491,-4.5834 2.653,-10.0264 5.649,-13.8951 C 214.443,25.2063 221.361,24.3681 220,17 c -5.05,2.1027 -10.555,6.4257 -16,7.1497 -6.037,0.8027 -10.868,-4.399 -16.957,-0.4074 C 178.63,29.2571 179.541,44.7876 168,46.0571 151.159,47.9097 137.42,29.8368 122,32.2284 108.911,34.2584 97.1655,46.8402 84,50.5718 62.5539,56.6504 44.2389,50.7347 23,49 M 231,26 c 14.726,-6.0089 25.036,-1.124 40,0.7137 11.933,1.4656 34.82037,-1.844082 46.45037,-4.709182 L 308,25 c -10.306,3.2738 -22.117,7.2788 -33,7.5448 -8.463,0.2067 -17.666,-2.1215 -26,0.2438 -9.989,2.8351 -17.224,10.3843 -25,16.7484 -10.746,8.7957 -24.235,16.6266 -33,27.463 19.517,-10.4438 33.429,-30.1726 53,-40.3657 11.835,-6.164 23.549,-1.1556 36,-2.9345 C 299.428,30.9241 318.237,19.1636 338,19 v 0 c -26.01,0.0029 -49.781,10.3347 -76,4.5756 -9.568,-2.1016 -24.84142,-5.240142 -32.32642,3.270958 M 4,37 c 2.26405,7.8774 10.6662,10.8667 18,12 V 48 L 4,37 m 49,27 v 1 c 13.0251,0.2688 25.3375,2.2863 38,-2.4637 8.0236,-3.0099 23.597,-14.4385 32,-11.9568 8.241,2.4336 11.855,11.8601 16,18.4205 1.395,-8.3755 -9.726,-20.1357 -18,-20.3704 C 110.233,48.3243 97.2103,58.648 87,62.1381 75.4848,66.0742 64.7504,64.0973 53,64 M 25,54 v 1 c 8.1222,4.7397 17.5121,8.5863 27,9 v -1 z"
       id="path11431"
       sodipodi:nodetypes="cccccccscccccccccscccccccccccccssccscccccccccccccccccc"
       clip-path="url(#clipPath77057)"
       transform="matrix(0.76070626,0,0,0.76070626,34.344816,16.756142)" />
    <path
       style="fill:#000000;stroke:#000000;stroke-width:1px;stroke-linecap:butt;stroke-linejoin:miter;stroke-opacity:1"
       d="m 225.33536,30.239755 c 5.48861,-4.154062 7.98282,-5.686598 7.98282,-5.686598"
       id="path13196"
       sodipodi:nodetypes="cc"
       clip-path="url(#clipPath77053)"
       transform="matrix(0.76070626,0,0,0.76070626,34.344816,16.756142)" />
    <ellipse
       style="opacity:0.93;fill:#000000"
       id="path13777"
       cx="194.58745"
       cy="29.437778"
       rx="1.5241647"
       ry="1.6096499"
       clip-path="url(#clipPath77049)"
       transform="matrix(0.76070626,0,0,0.76070626,34.344816,16.756142)" />
    <path
       style="fill:none;stroke:#000000;stroke-width:1px;stroke-linecap:butt;stroke-linejoin:miter;stroke-opacity:1"
       d="M 138.54,66.023409 C 139.37888,97.431916 168,96 168,96"
       id="path51380"
       sodipodi:nodetypes="cc"
       clip-path="url(#clipPath77045)"
       transform="matrix(0.76070626,0,0,0.76070626,34.344816,16.756142)" />
    <path
       style="fill:none;stroke:#000000;stroke-width:1px;stroke-linecap:butt;stroke-linejoin:miter;stroke-opacity:1"
       d="m 81.231071,52.217855 c 1.635163,4.69671 5.357033,10.394155 5.357033,10.394155"
       id="path51977"
       clip-path="url(#clipPath77041)" />
    <path
       style="opacity:0.93;fill:#ffffff;fill-opacity:0.99;stroke-width:0.195312"
       d="M 165.23438,95.298731 C 158.15386,94.71161 151.64552,91.891981 147.25345,87.508795 142.51568,82.78062 139.90431,76.454284 139.26837,68.164063 139.15713,66.713868 138.92545,65 138.75352,64.355469 c -1.4175,-5.314164 -6.82022,-11.58408 -12.28868,-14.261143 -2.3614,-1.156013 -3.65149,-1.461513 -6.1718,-1.461513 -4.923,0 -9.25285,1.484431 -18.8282,6.454996 -6.71286,3.484648 -10.738447,5.465814 -12.812943,6.305808 l -1.640178,0.664133 -0.831898,-1.292547 c -0.944398,-1.467341 -3.953258,-7.323921 -3.953258,-7.694798 0,-0.143159 0.826798,-0.472104 2.001953,-0.796489 4.453163,-1.229234 9.128542,-3.38566 14.794922,-6.823865 1.665042,-1.010301 4.873042,-2.960531 7.128902,-4.333844 6.80484,-4.142623 12.52622,-6.699449 16.42981,-7.34232 2.69809,-0.444338 5.32846,0.37083 10.94485,3.391875 11.66813,6.276266 20.74434,9.734201 28.07908,10.697826 2.28901,0.300727 7.25073,0.138774 8.77985,-0.286576 2.87423,-0.799516 5.39935,-2.686076 7.32644,-5.473719 0.56092,-0.8114 2.02172,-3.519408 3.24622,-6.017798 1.22449,-2.498389 2.68698,-5.289596 3.24997,-6.202682 1.30069,-2.109557 3.73331,-4.556324 5.43988,-5.47152 1.19469,-0.64069 1.37891,-0.680824 3.125,-0.680824 1.67969,0 2.15152,0.09252 4.98047,0.976562 3.06923,0.959137 3.16856,0.97635 5.5664,0.964608 2.18308,-0.01069 2.59641,-0.07013 3.90625,-0.561758 1.76812,-0.663629 3.92034,-1.727481 6.54297,-3.234214 2.46485,-1.416086 4.0175,-2.200617 4.13085,-2.087264 0.0485,0.04846 -2.09163,2.348756 -4.75575,5.111776 l -4.84385,5.023673 -6.35772,15.489502 -6.35772,15.489502 -13.63662,17.25365 c -12.7241,16.099088 -13.67752,17.255071 -14.24775,17.274866 -0.33612,0.01167 -1.44609,-0.04802 -2.46659,-0.132641 z m 30.26573,-64.435233 c 0.45465,-0.243324 0.7762,-1.154667 0.6466,-1.832632 -0.12655,-0.662012 -0.91943,-1.296491 -1.62016,-1.296491 -1.29485,0 -2.01569,1.71241 -1.1716,2.783203 0.45162,0.57291 1.4271,0.730212 2.14516,0.34592 z"
       id="path76208"
       clip-path="url(#clipPath77037)"
       transform="matrix(0.76070626,0,0,0.76070626,34.344816,16.756142)" />
    <path
       style="opacity:0.93;fill:#ffffff;fill-opacity:0.99;stroke-width:0.195312"
       d="m 165.23438,95.298731 c -10.2731,-0.851852 -18.52673,-6.042684 -22.6486,-14.244043 -1.9238,-3.827824 -2.8938,-7.612176 -3.32102,-12.956563 -0.11024,-1.379039 -0.34049,-3.048961 -0.51168,-3.710937 -1.36842,-5.291655 -6.74686,-11.544901 -12.28824,-14.286914 -2.34287,-1.159319 -3.63886,-1.467461 -6.1718,-1.467461 -4.91536,0 -9.3662,1.533945 -19.02351,6.556304 -6.416319,3.336858 -10.524234,5.356852 -12.617633,6.2045 l -1.640178,0.664133 -0.831898,-1.292547 c -0.956696,-1.486449 -3.953258,-7.326031 -3.953258,-7.703951 0,-0.142617 0.447444,-0.364426 1.025391,-0.508312 2.525188,-0.628674 5.95763,-1.915291 8.83789,-3.312797 2.978325,-1.445086 4.630355,-2.399209 14.062496,-8.121731 6.56283,-3.981694 10.88338,-6.000368 15.10483,-7.05737 1.66623,-0.417205 2.29496,-0.489481 3.33293,-0.383138 1.93857,0.198613 4.5254,1.146923 7.54733,2.766795 9.90588,5.30993 18.41468,8.96176 24.30788,10.432524 4.6383,1.157578 9.73159,1.501918 13.01993,0.880234 2.11927,-0.400664 4.44634,-1.585049 6.03597,-3.072066 1.77042,-1.656143 3.05156,-3.682863 5.53645,-8.758503 2.75259,-5.622451 3.80984,-7.321543 5.76788,-9.269501 2.13754,-2.126538 3.56801,-2.877811 5.67493,-2.980433 1.36754,-0.06661 1.86712,0.01473 4.00391,0.651911 4.92522,1.468679 5.01654,1.486292 7.22656,1.393866 2.84759,-0.119091 5.00764,-0.945235 10.05859,-3.847064 2.46754,-1.417628 4.01752,-2.200593 4.13125,-2.08687 0.0487,0.04867 -2.09142,2.350455 -4.75575,5.115071 l -4.84425,5.026573 -6.36165,15.49794 -6.36164,15.49794 -13.63252,17.241918 c -12.72087,16.08891 -13.67339,17.243336 -14.24382,17.263133 -0.33622,0.01167 -1.44627,-0.04802 -2.46677,-0.132641 z m 30.26573,-64.435233 c 0.45465,-0.243324 0.7762,-1.154667 0.6466,-1.832632 -0.18046,-0.943982 -1.34098,-1.539455 -2.2903,-1.175166 -0.40172,0.154154 -0.88766,1.083759 -0.88766,1.698105 0,0.788663 0.70794,1.500883 1.49186,1.500883 0.37524,0 0.84302,-0.08604 1.0395,-0.19119 z"
       id="path76247"
       clip-path="url(#clipPath77033)"
       transform="matrix(0.76070626,0,0,0.76070626,34.344816,16.756142)" />
    <path
       style="opacity:0.93;fill:#05386b;fill-opacity:1;stroke-width:0.176777"
       d="m 165.63976,95.33606 c -7.63209,-0.647739 -13.89262,-3.328631 -18.48049,-7.913727 -4.72729,-4.724431 -7.13511,-10.634053 -7.93875,-19.484371 -0.22419,-2.468985 -0.37795,-3.329704 -0.82103,-4.596194 -2.04244,-5.838031 -7.82453,-11.767305 -13.64076,-13.987995 -1.47934,-0.564825 -1.84262,-0.631105 -3.84347,-0.70124 -4.93289,-0.17291 -9.23663,1.228672 -18.73833,6.102445 -8.987288,4.60991 -11.326465,5.763882 -13.26109,6.542007 l -1.853318,0.745423 -0.316086,-0.378339 c -0.999161,-1.195942 -4.643585,-8.296661 -4.478731,-8.726264 0.0451,-0.117538 0.386669,-0.269724 0.759034,-0.338186 1.690472,-0.310814 6.216553,-1.997637 9.026292,-3.364004 3.37341,-1.640479 4.537983,-2.303059 10.799299,-6.144242 9.98893,-6.128001 14.49724,-8.289967 19.28968,-9.25041 2.66405,-0.533895 5.23412,0.08488 9.37985,2.258299 8.02267,4.205929 12.66077,6.429479 17.05895,8.178223 3.96201,1.575321 7.91907,2.739818 11.49049,3.381457 2.48245,0.445997 8.14022,0.454594 9.89949,0.01504 3.14132,-0.784859 5.88555,-2.819316 7.88855,-5.848251 0.58521,-0.884968 2.05878,-3.636017 3.27458,-6.11344 3.20321,-6.527135 5.00823,-9.071282 7.66359,-10.801694 1.56669,-1.02096 2.3717,-1.269888 4.06586,-1.25726 1.53284,0.01143 1.77618,0.06676 5.92202,1.346523 5.17408,1.597169 7.39746,1.093099 15.75659,-3.572218 1.56853,-0.875417 3.03627,-1.65019 3.26164,-1.721719 0.49925,-0.158456 -0.35172,0.78408 -5.69346,6.306125 l -3.82257,3.951598 -6.30309,15.379572 c -3.4667,8.458765 -6.47659,15.618221 -6.68864,15.909903 -0.33148,0.455946 -20.56051,26.076008 -25.40566,32.176259 l -1.68717,2.124223 z M 195.573,30.751485 c 1.14141,-0.897836 0.49563,-2.997544 -0.92192,-2.997544 -0.97662,0 -1.61618,0.725206 -1.60531,1.820279 0.0129,1.302066 1.49241,1.991255 2.52723,1.177265 z"
       id="path76401"
       clip-path="url(#clipPath77029)"
       transform="matrix(0.76070626,0,0,0.76070626,34.344816,16.756142)" />
    <path
       style="fill:none;stroke:#000000;stroke-width:1px;stroke-linecap:butt;stroke-linejoin:miter;stroke-opacity:1"
       d="M 197.00399,72.119195 C 191,77 181.33267,82.532274 181.33267,82.532274"
       id="path76584"
       clip-path="url(#clipPath77025)"
       transform="matrix(0.76070626,0,0,0.76070626,34.344816,16.756142)" />
    <path
       style="fill:none;stroke:#000000;stroke-width:1px;stroke-linecap:butt;stroke-linejoin:miter;stroke-opacity:1"
       d="m 275.8313,33.495117 c 0.59472,-4.179687 -1.20508,-7.459961 -1.20508,-7.459961"
       id="path76586"
       clip-path="url(#clipPath77021)" />
    <path
       style="opacity:0.93;fill:#05386b;fill-opacity:1;stroke-width:0.5"
       d="m 188.66954,75.625 c 0.65015,-1.03125 3.26896,-5.5875 5.81958,-10.125 9.23002,-16.419973 11.79704,-19.625288 21.10462,-26.352255 3.21406,-2.322931 7.31723,-5.524287 9.11817,-7.114125 8.29653,-7.324027 12.49852,-8.859205 22.97942,-8.395416 3.33992,0.147794 9.08764,0.856324 12.80867,1.578944 3.7125,0.720964 8.36324,1.448539 10.33498,1.616833 3.92851,0.335311 4.14383,0.548132 4.15819,4.109859 l 0.007,1.693841 -2.625,-0.302329 c -6.58925,-0.758905 -17.27885,-0.954752 -20.5947,-0.377322 -7.03492,1.22508 -13.06727,4.679173 -23.2803,13.330185 -3.1625,2.678816 -10.59111,8.511669 -16.50802,12.961895 -5.91691,4.450227 -12.66691,9.886566 -15,12.080754 -3.7885,3.562951 -8.42295,7.169136 -9.21334,7.169136 -0.16015,0 0.24075,-0.84375 0.8909,-1.875 z"
       id="path76625"
       clip-path="url(#clipPath77017)"
       transform="matrix(0.76070626,0,0,0.76070626,34.344816,16.756142)" />
  </g>
</svg>
