<?xml version="1.0" encoding="UTF-8" standalone="no"?>
<!-- Created with Inkscape (http://www.inkscape.org/) -->

<svg
   width="89.36834"
   height="89.36834"
   viewBox="0 0 23.645376 23.645374"
   version="1.1"
   id="svg5"
   xmlns="http://www.w3.org/2000/svg"
   xmlns:svg="http://www.w3.org/2000/svg">
  <defs
     id="defs2">
    <clipPath
       clipPathUnits="userSpaceOnUse"
       id="clipPath1487">
      <circle
         style="opacity:0.71;fill:#ffffff;stroke-width:0.248578"
         id="circle1489"
         cx="117.23519"
         cy="173.0692"
         r="11.822686" />
    </clipPath>
  </defs>
  <g
     id="layer1"
     transform="translate(-105.413,-161.247)">
    <circle
       style="opacity:0.71;fill:#ffffff;stroke-width:0.248578"
       id="circle1485"
       cx="117.23569"
       cy="173.06969"
       r="11.822686" />
    <path
       style="fill:#06386b;stroke-width:0.264583"
       d="m 119.06647,183.84124 c -0.57049,-0.13378 -2.06618,-0.76684 -3.32376,-1.4068 -2.9991,-1.52619 -5.01477,-2.10264 -6.72953,-1.92453 l -1.34487,0.13969 0.92131,-0.39847 c 1.6346,-0.70697 4.17192,-0.36558 7.87873,1.06008 3.50049,1.34631 5.81627,1.75486 7.24734,1.27857 l 0.88595,-0.29486 -0.77305,0.6368 c -0.71772,0.59122 -2.57892,1.24081 -3.37901,1.17933 -0.19022,-0.0146 -0.81262,-0.13604 -1.38311,-0.26981 z m -4.12212,-6.64357 -1.19063,-0.5514 1.4073,-0.22352 c 0.77401,-0.12294 1.64709,-0.35185 1.94018,-0.50871 0.48916,-0.26179 0.49852,-0.32317 0.11406,-0.74799 -0.23036,-0.25454 -0.41883,-0.55039 -0.41883,-0.65744 0,-0.31251 -2.1909,-2.7836 -2.86374,-3.22999 -0.44556,-0.2956 -1.57444,-0.44292 -4.10104,-0.53517 -1.91744,-0.07 -3.59036,-0.23111 -3.71759,-0.35799 -0.46601,-0.46475 2.59044,-1.1401 5.65529,-1.24959 4.26568,-0.15239 5.17685,0.14731 6.21771,2.04513 1.23399,2.24995 2.08336,3.42477 2.47861,3.42835 0.19907,0.002 0.78608,-0.36912 1.30446,-0.82426 2.09282,-1.83753 5.60946,-2.90721 6.40524,-1.94835 0.31517,0.37975 0.22373,2.10933 -0.13023,2.46329 -0.0831,0.0831 -0.83228,-0.19705 -1.66495,-0.62245 -0.83268,-0.42539 -1.6068,-0.81685 -1.72027,-0.86991 -0.208,-0.0973 -2.04265,1.76586 -2.04265,2.07434 0,0.0913 0.56554,0.45022 1.25677,0.79761 l 1.25677,0.63162 -1.16154,0.20156 c -0.63884,0.11085 -1.38262,0.40163 -1.65283,0.64617 -0.38338,0.34695 -1.11625,0.4606 -3.33638,0.51736 -2.42491,0.062 -3.02092,-0.009 -4.03571,-0.47866 z m -7.02263,-11.5628 c 0.25317,-0.40963 1.93174,-1.23217 3.22539,-1.58052 0.83138,-0.22386 2.03985,-0.20442 5.0256,0.0809 4.12968,0.39459 6.23695,0.2449 7.43674,-0.52825 0.32743,-0.211 0.59532,-0.28257 0.59532,-0.15906 0,0.339 -1.08059,1.2576 -2.06475,1.75521 -1.47656,0.74658 -3.12579,0.78551 -6.27263,0.14806 -3.28739,-0.66592 -5.805,-0.62583 -7.23813,0.11527 -0.48779,0.25225 -0.80619,0.32804 -0.70754,0.16842 z"
       id="path1465"
       clip-path="url(#clipPath1487)" />
    <path
       style="opacity:0.71;fill:#ffffff;stroke-width:0.180122"
       d="M 60.881203,81.117635 C 54.985206,80.223587 50.82267,79.050068 41.968403,75.785661 34.814979,73.148324 30.326986,71.828918 25.487249,70.940434 23.7022,70.612735 22.667062,70.543592 19.543226,70.543402 c -4.23704,-1.8e-4 -5.192432,0.167678 -8.062718,1.417218 L 9.9967655,72.606547 9.4846944,72.012441 C 8.5574269,70.936621 6.5315128,67.815071 5.4326111,65.768949 2.7812194,60.832134 1.1899018,55.907075 0.44873571,50.344071 0.10704324,47.779415 0.05977592,42.523814 0.35396785,39.80694 1.1701441,32.269518 4.2925225,24.308386 8.8371472,18.177366 c 0.716894,-0.96714 1.0210253,-1.22826 1.6497008,-1.416395 0.423924,-0.126862 1.224758,-0.459689 1.779632,-0.739617 2.755282,-1.390009 5.566186,-1.954513 10.42888,-2.094395 5.366629,-0.154379 9.292773,0.24357 17.11158,1.73441 6.969181,1.328838 10.7123,1.734866 14.409752,1.563071 3.672886,-0.170654 6.252012,-0.79944 9.05703,-2.208087 2.915052,-1.463904 6.560159,-4.304665 7.49411,-5.8404276 l 0.308023,-0.5065012 1.792336,1.4863548 c 9.727778,8.067084 15.339701,18.933242 16.295924,31.553184 0.442714,5.842846 -0.549765,12.804671 -2.619321,18.373428 -2.497393,6.719979 -6.98445,13.304841 -12.143128,17.820331 -1.552345,1.358798 -1.761396,1.480062 -3.665693,2.12635 -2.87018,0.974092 -4.274293,1.209926 -7.033696,1.181376 -1.303924,-0.01349 -2.573407,-0.05526 -2.821074,-0.09281 z M 51.903722,62.141771 c 5.253711,-0.175664 7.814196,-0.37796 9.427785,-0.744865 0.963508,-0.219088 2.511118,-0.927613 2.702484,-1.23725 0.216957,-0.351047 2.590832,-1.435624 4.090216,-1.868738 0.8211,-0.237186 2.607412,-0.614745 3.969584,-0.83902 1.362172,-0.224277 2.475539,-0.4563 2.474151,-0.515606 -0.0014,-0.05931 -1.64275,-0.941224 -3.647469,-1.959815 -3.897031,-1.980067 -5.589348,-3.016952 -5.677239,-3.478449 -0.03006,-0.157861 0.329818,-0.79849 0.799736,-1.423621 1.034412,-1.376072 4.742531,-5.120329 5.759164,-5.815289 l 0.73315,-0.501177 4.866989,2.40866 c 2.676846,1.324763 5.577432,2.639762 6.445747,2.922221 l 1.578756,0.513563 0.33126,-0.409089 c 1.054221,-1.301909 1.442651,-7.088099 0.588857,-8.771856 -1.531548,-3.020345 -9.027105,-2.191244 -17.065441,1.887647 -2.652154,1.345783 -4.545032,2.60169 -7.556305,5.013538 -2.798118,2.241124 -4.411077,3.204628 -5.08258,3.036092 C 55.303876,50.022728 51.841174,45.148745 48.006806,38.203311 44.775653,32.35052 42.455377,30.675439 36.474685,29.877908 34.411068,29.602723 24.859168,29.608984 20.984201,29.888067 10.496217,30.643419 1.793999,32.716499 2.4068787,34.313636 c 0.058078,0.15135 0.3147418,0.354698 0.5703641,0.451885 1.1246026,0.427573 6.9536473,0.924902 14.7647642,1.259718 9.888217,0.423849 13.030098,0.923936 14.89332,2.370541 2.526874,1.961859 10.233685,10.668464 10.233685,11.561281 0,0.401112 0.770214,1.649559 1.73532,2.812788 0.531579,0.640709 0.966509,1.256321 0.966509,1.368029 0,0.607893 -1.947102,1.558033 -4.588551,2.239103 -1.136305,0.292982 -3.66908,0.790619 -5.628392,1.105858 -1.95931,0.315239 -3.626803,0.628867 -3.70554,0.696951 -0.153442,0.132681 4.876087,2.521037 6.447343,3.061628 1.508773,0.519095 2.913492,0.76519 5.133555,0.899354 3.093437,0.186946 3.113112,0.186948 8.674466,0.0011 z"
       id="path1644"
       transform="matrix(0.26458333,0,0,0.26458333,105.413,161.247)" />
    <path
       style="opacity:0.71;fill:#ffffff;stroke-width:0.180122"
       d="m 57.548947,80.439588 c -4.680249,-0.964038 -8.032667,-1.980766 -15.490483,-4.69799 -6.774298,-2.468189 -11.73308,-3.944913 -16.12091,-4.800803 -1.7567,-0.342663 -2.687124,-0.405494 -6.124145,-0.41356 -4.545645,-0.01066 -5.038102,0.06393 -7.870946,1.19227 C 9.696215,72.614201 9.9798641,72.765356 7.8282248,69.527054 3.8781571,63.582048 1.514642,57.405345 0.52231898,50.434132 0.18245198,48.046517 0.23838334,40.674567 0.61446117,38.289469 1.6062939,31.999232 4.2747614,25.063397 7.618923,20.083592 c 1.8016542,-2.682851 1.98844,-2.85959 3.908879,-3.698631 4.700225,-2.053534 5.776296,-2.239477 12.968777,-2.240982 6.384249,-0.0013 6.401487,4.68e-4 15.406085,1.613658 6.634981,1.188667 9.513949,1.533879 12.782992,1.532785 5.620481,-0.0019 9.09523,-1.026576 13.524444,-3.988331 1.82718,-1.221811 4.323666,-3.4422558 4.718823,-4.1970539 0.170681,-0.3260234 0.272902,-0.2757468 1.417411,0.6971516 4.846429,4.1197433 7.731124,7.4294153 10.583769,12.1429843 3.986953,6.587845 6.236852,14.765621 6.227116,22.633893 -0.01055,8.537793 -2.25164,16.443086 -6.67007,23.528346 -2.314091,3.710805 -5.870441,7.892007 -8.639497,10.157458 -0.951908,0.778786 -1.632868,1.154979 -2.929607,1.618453 -2.688224,0.960808 -4.051909,1.172914 -7.462511,1.160711 -2.692479,-0.0096 -3.341125,-0.07601 -5.906587,-0.604446 z m -3.78256,-18.3033 c 6.76436,-0.311472 8.463624,-0.631887 10.413669,-1.963606 1.577338,-1.077192 3.648108,-1.796943 7.193247,-2.5002 1.75844,-0.348828 3.197164,-0.68935 3.197164,-0.756717 0,-0.06737 -0.911867,-0.593349 -2.026371,-1.168847 -4.366263,-2.254613 -6.628321,-3.538457 -6.978955,-3.960946 -0.200141,-0.241154 -0.193541,-0.384499 0.04028,-0.874823 0.623247,-1.306963 6.222848,-6.961405 6.893888,-6.961405 0.118499,0 2.193292,0.962629 4.610653,2.139176 3.841721,1.869793 6.750241,3.147013 8.018935,3.521356 0.872336,0.257395 1.507262,-1.763107 1.637272,-5.210227 0.138009,-3.659191 -0.274666,-4.743403 -2.068967,-5.435746 -1.042643,-0.402311 -4.632249,-0.452272 -6.164052,-0.08579 -3.486137,0.834049 -5.963065,1.737171 -9.166409,3.342198 -2.486691,1.245951 -4.068057,2.261974 -6.865836,4.411284 -3.085474,2.37032 -3.392202,2.5925 -4.337355,3.141773 -1.513619,0.879636 -1.982462,0.65537 -3.948761,-1.888845 C 52.731956,45.96627 50.932848,43.148167 48.540251,38.996392 47.569711,37.312252 46.568077,35.650627 46.3144,35.303893 43.75719,31.80862 41.878715,30.712502 37.015051,29.877591 35.348757,29.59155 23.251086,29.59535 19.993531,29.88294 9.9462125,30.769951 2.3415847,32.604715 2.3415847,34.141816 c 0,0.956529 3.3226727,1.371481 15.8507273,1.979518 8.458625,0.410532 11.609532,0.832852 13.555782,1.816899 1.121781,0.567184 4.419941,3.835067 7.527512,7.458407 2.759808,3.217858 3.127647,3.709173 3.642817,4.865624 0.240705,0.540329 0.89544,1.584209 1.454969,2.319732 0.559531,0.735522 1.017327,1.432189 1.017327,1.548149 0,0.332999 -0.561332,0.756475 -1.628077,1.228239 -1.732002,0.765974 -4.182108,1.343767 -9.719603,2.292114 -1.238338,0.212078 -2.314916,0.444752 -2.392397,0.517055 -0.22164,0.206828 5.489123,2.856882 7.224054,3.352288 2.73318,0.780454 7.260159,0.967851 14.891691,0.616449 z"
       id="path1683"
       transform="matrix(0.26458333,0,0,0.26458333,105.413,161.247)" />
    <path
       style="opacity:0.71;fill:#ffffff;stroke-width:0.180122"
       d="M 60.701081,80.93082 C 59.674633,80.822738 56.218688,80.160006 54.666997,79.77369 52.056523,79.123776 48.430638,77.971421 43.679561,76.281735 35.592871,73.405765 33.27826,72.66198 29.449931,71.709148 25.066688,70.618202 24.372701,70.534099 19.723348,70.53041 15.049807,70.5267 14.94712,70.541452 12.104514,71.625108 11.015396,72.0403 10.276306,72.225076 9.9910582,72.153483 9.4119754,72.008143 6.732096,67.97443 5.1584987,64.87959 3.0515474,60.735787 1.8627182,57.326681 0.9484557,52.806802 0.46642844,50.423782 0.45040757,50.160426 0.45348117,44.670231 0.45638046,39.491379 0.49243494,38.818442 0.86675943,36.956617 2.0694778,30.974508 4.5770625,24.746291 7.6601228,20.083592 c 1.6657639,-2.519236 2.133833,-2.918728 4.6782272,-3.992814 3.953194,-1.668795 4.328637,-1.728875 11.34768,-1.815926 6.932613,-0.08598 7.472256,-0.03922 15.040179,1.303063 7.266209,1.288773 9.245655,1.549283 12.608533,1.659378 4.94096,0.161758 8.079155,-0.351155 11.325514,-1.851066 2.081251,-0.961597 5.266215,-3.174381 6.991287,-4.857265 0.852168,-0.8313266 1.638838,-1.4601773 1.748154,-1.3974459 0.647966,0.3718343 3.386515,2.8547439 5.25649,4.7658059 6.588915,6.733689 10.562692,14.901598 12.079526,24.828887 0.387028,2.533005 0.433,8.784401 0.08345,11.347679 -1.179305,8.647916 -4.283077,15.908277 -9.671345,22.62327 -1.838504,2.29119 -4.758264,5.234283 -6.019529,6.067637 -1.260216,0.832658 -4.327346,1.855504 -6.298339,2.100408 -1.434684,0.178267 -4.724553,0.21349 -6.128869,0.06562 z M 57.458886,61.96179 c 3.30779,-0.262703 4.888599,-0.681978 6.859122,-1.819233 2.005688,-1.15755 3.786126,-1.76192 7.415539,-2.517202 1.560306,-0.3247 2.83692,-0.645987 2.83692,-0.713973 0,-0.06798 -1.357669,-0.838294 -3.017042,-1.711802 -3.848227,-2.025741 -5.920819,-3.247094 -6.040806,-3.559778 -0.196623,-0.51239 0.577221,-1.55417 3.022811,-4.069442 3.029101,-3.11541 3.724819,-3.668257 4.327757,-3.439021 0.234744,0.08925 2.275221,1.046031 4.534391,2.126181 2.259169,1.080149 4.986746,2.319102 6.061282,2.753226 l 1.953699,0.789318 0.340504,-0.420504 c 0.651145,-0.804131 1.063589,-3.049313 1.063645,-5.79006 4.5e-5,-2.161854 -0.184419,-3.008034 -0.820545,-3.764025 -0.770796,-0.916039 -1.824336,-1.191453 -4.491003,-1.174022 -1.940419,0.01268 -2.665602,0.09999 -4.232864,0.509583 -2.58801,0.676366 -4.888095,1.556296 -7.617696,2.914255 -2.84999,1.417851 -3.879104,2.080838 -7.964879,5.131228 -1.78209,1.330488 -3.590834,2.575563 -4.019431,2.766836 -0.754361,0.336652 -0.798498,0.33741 -1.38096,0.02374 -1.319271,-0.71048 -3.542505,-3.92107 -8.428376,-12.171496 -0.850672,-1.436472 -1.915814,-3.075336 -2.366978,-3.641919 -1.610157,-2.022068 -3.601453,-3.23484 -6.456897,-3.932482 -3.819391,-0.933152 -15.942308,-0.875522 -23.726717,0.112794 -7.7373476,0.98234 -12.9687773,2.506263 -12.9687773,3.777823 0,0.935443 3.3384791,1.36865 15.2203003,1.975018 8.546916,0.436176 12.01563,0.868987 13.908432,1.735442 1.821976,0.834031 10.006449,9.650402 11.262042,12.131553 0.3008,0.594402 1.03535,1.785815 1.632335,2.647584 1.260571,1.81968 1.265371,1.796718 -0.549921,2.631104 -1.530339,0.70341 -3.83939,1.282891 -8.420819,2.113291 -1.981341,0.359125 -3.665393,0.713322 -3.742339,0.787107 -0.180758,0.17333 4.770042,2.555448 6.545532,3.149437 1.242762,0.415765 2.662962,0.694691 4.581804,0.899864 1.267439,0.135522 12.160001,-0.05029 14.679935,-0.250425 z"
       id="path1722"
       transform="matrix(0.26458333,0,0,0.26458333,105.413,161.247)" />
    <path
       style="opacity:0.71;fill:#ffffff;stroke-width:0.180122"
       d="M 60.701081,80.873206 C 57.520083,80.564124 52.747722,79.340304 46.868218,77.32592 44.123787,76.385645 40.01408,74.978832 37.735538,74.199664 29.832629,71.497197 26.064233,70.648916 21.254384,70.489697 16.922807,70.346308 14.811093,70.573254 12.531745,71.427116 10.013579,72.370444 10.006351,72.369392 8.8932725,70.897259 5.3450005,66.204395 2.3562164,59.429555 1.0754879,53.176258 0.0961509,48.394538 0.14404809,40.35923 1.1795205,35.723593 2.3673526,30.405867 4.7224317,24.693055 7.4965867,20.40003 9.3103146,17.593272 10.161176,16.93349 13.75892,15.54404 c 2.60032,-1.004244 3.614419,-1.139727 9.411473,-1.257368 6.341242,-0.128683 8.011992,0.0075 14.959538,1.219099 8.288884,1.445553 9.648662,1.623664 13.230044,1.732946 5.097147,0.155533 8.077678,-0.345254 11.444157,-1.922839 1.981793,-0.928698 4.845715,-2.907285 6.770715,-4.677655 0.868357,-0.7986032 1.647496,-1.4520061 1.73142,-1.4520061 0.517231,0 5.059635,4.2647811 7.166928,6.7288961 5.611419,6.561589 9.101068,14.432344 10.233379,23.080944 0.324818,2.480959 0.379188,8.569261 0.09651,10.807649 -1.112344,8.808245 -4.331602,16.321582 -9.898691,23.102282 -1.911035,2.327636 -4.808069,5.189594 -6.042972,5.969805 -2.605901,1.64641 -7.499774,2.450259 -12.160343,1.997413 z m -2.983232,-18.92064 c 2.907008,-0.252965 4.67846,-0.698509 6.207196,-1.561189 2.560047,-1.44466 3.995831,-1.936454 8.348868,-2.859705 1.263105,-0.267897 2.296554,-0.544298 2.296554,-0.614223 0,-0.06993 -1.717513,-1.050359 -3.816695,-2.17874 -4.288052,-2.304971 -5.1894,-2.893594 -5.1894,-3.388922 0,-0.188618 0.336062,-0.775756 0.746805,-1.304754 1.22167,-1.573399 5.448423,-5.700815 5.972794,-5.832425 0.379551,-0.09526 1.345559,0.289944 4.669745,1.862102 5.183052,2.451299 7.565348,3.472257 8.203149,3.515544 1.004356,0.06816 1.652273,-2.277784 1.657318,-6.000754 0.0029,-2.160171 -0.181138,-3.007135 -0.81802,-3.764025 -0.788658,-0.937268 -1.810164,-1.192386 -4.671125,-1.166596 -2.262059,0.02039 -2.725539,0.08187 -4.501352,0.597032 -5.471142,1.587193 -9.449271,3.640556 -14.68163,7.57811 -3.228456,2.42954 -4.616108,3.299908 -5.261136,3.299908 -1.185296,0 -3.55042,-3.194502 -8.444992,-11.406393 C 45.7096,34.153423 44.289016,32.479848 42.194227,31.374245 39.4228,29.91152 35.094344,29.421005 26.621041,29.60944 c -5.809333,0.12919 -8.414262,0.320979 -12.744826,0.938336 -8.2991326,1.183107 -12.98412622,2.912618 -11.129356,4.10851 0.4932269,0.318014 1.8944568,0.565574 4.6381389,0.819428 3.3860401,0.31329 3.9973321,0.354464 9.5464611,0.642994 9.340035,0.485643 12.671838,0.904463 14.583155,1.833149 1.72528,0.838295 8.578987,8.05578 10.570313,11.131361 2.436252,3.762763 3.120194,4.890668 3.122795,5.149878 0.0056,0.5541 -2.348881,1.543349 -5.290718,2.222967 -0.605405,0.139859 -2.681304,0.548741 -4.613111,0.908629 -1.931808,0.359887 -3.575616,0.71718 -3.652909,0.793986 -0.220503,0.219118 5.420194,2.846335 7.192529,3.349999 0.876619,0.249119 2.161238,0.530133 2.854707,0.624472 1.592723,0.216677 12.922061,0.08897 16.019629,-0.180583 z"
       id="path1761"
       transform="matrix(0.26458333,0,0,0.26458333,105.413,161.247)" />
    <path
       style="opacity:0.71;fill:#ffffff;stroke-width:0.180122"
       d="M 60.701081,80.944731 C 56.909938,80.472455 52.358962,79.253004 45.300658,76.818129 33.406112,72.714914 29.694052,71.594482 25.667371,70.892102 c -2.192294,-0.382406 -7.140686,-0.547244 -9.351854,-0.311526 -1.273249,0.135733 -2.42138,0.412394 -3.995058,0.962676 L 10.112135,72.315454 9.6305042,71.866895 C 8.868124,71.156862 6.6164203,67.663907 5.3354097,65.204128 3.2280575,61.157619 1.7640973,56.970435 0.86412819,52.415473 0.49132946,50.528648 0.45512966,49.846517 0.4578785,44.760292 c 0.003392,-6.27674 0.11728711,-7.253201 1.3586901,-11.648524 1.2919015,-4.57412 3.4832455,-9.453024 5.8597257,-13.046349 1.5898649,-2.403934 2.230826,-2.947824 4.7052057,-3.992625 3.778438,-1.595436 4.345419,-1.689008 10.879383,-1.795479 6.631193,-0.108055 7.969106,-0.0028 14.564716,1.145623 7.530744,1.311269 10.38261,1.695611 13.419082,1.808473 3.193412,0.118694 5.954711,-0.10822 8.075007,-0.663578 3.585746,-0.939196 7.370525,-3.191535 10.634516,-6.328648 0.705629,-0.6781996 1.299252,-1.23309 1.319164,-1.23309 0.162389,0 2.702765,2.261324 4.442878,3.954842 15.929529,15.502989 17.899603,40.395909 4.605049,58.187214 -3.014973,4.034759 -6.231934,7.195877 -8.364128,8.218941 -2.20488,1.057938 -4.44315,1.518033 -7.743709,1.591778 -1.585073,0.03542 -3.165643,0.02905 -3.512377,-0.01414 z M 57.188704,61.947074 c 3.509792,-0.257135 4.692843,-0.556953 7.024754,-1.780276 2.329986,-1.222313 3.921576,-1.762612 7.475059,-2.53757 1.436472,-0.313272 2.669503,-0.622599 2.74007,-0.687394 0.07056,-0.06479 -1.510005,-1.000149 -3.512377,-2.078567 -4.636491,-2.497072 -5.351838,-2.960459 -5.351838,-3.466812 0,-0.556609 0.996834,-1.823399 3.216961,-4.088156 2.6164,-2.669 3.527741,-3.388526 4.040058,-3.189731 0.218989,0.08498 2.059786,0.942144 4.090661,1.904824 4.216724,1.998822 6.168159,2.865318 7.52162,3.339833 0.934761,0.327719 0.951604,0.327312 1.285555,-0.03114 0.692169,-0.742956 0.992631,-2.385005 1.001339,-5.472399 0.0068,-2.403053 -0.04365,-2.976583 -0.303485,-3.451442 -0.742151,-1.356321 -1.886736,-1.762422 -4.911921,-1.742766 -3.370725,0.0219 -6.601729,0.924851 -11.222048,3.136157 -2.894876,1.385501 -4.896193,2.646043 -8.633299,5.437739 -2.785277,2.080662 -3.823471,2.741562 -4.611508,2.935625 -0.459678,0.1132 -0.630898,0.0021 -1.715574,-1.113439 -1.401655,-1.441507 -3.020266,-3.832106 -6.327032,-9.344678 -1.307377,-2.179475 -2.820452,-4.55442 -3.362386,-5.277658 C 43.962907,32.209998 41.720579,30.855407 38.550201,30.16032 35.322575,29.452681 23.178962,29.459651 16.931459,30.17273 7.4025724,31.260338 0.97936862,33.228638 2.5918702,34.566895 3.233885,35.099721 7.8940401,35.608472 15.940788,36.0242 c 10.549749,0.545047 13.674324,0.931331 15.670606,1.937319 1.846498,0.93051 9.72952,9.431509 11.061305,11.928442 0.291735,0.546963 1.016471,1.713141 1.610528,2.591504 0.598188,0.884472 1.035917,1.71217 0.98107,1.855099 -0.168283,0.438533 -2.153455,1.317643 -4.166967,1.845294 -1.056449,0.276848 -3.602705,0.814351 -5.658346,1.194455 -2.055641,0.380103 -3.737529,0.755911 -3.737529,0.83513 0,0.186185 2.279143,1.330146 4.768232,2.3933 2.213629,0.945499 3.643448,1.32186 5.85896,1.542214 1.852725,0.184272 11.362518,0.05636 14.860057,-0.199879 z"
       id="path1800"
       transform="matrix(0.26458333,0,0,0.26458333,105.413,161.247)" />
    <path
       style="opacity:0.71;fill:#ffffff;stroke-width:0.180122"
       d="M 60.701081,80.943852 C 56.957607,80.472294 52.362238,79.244663 45.512892,76.886392 33.337251,72.694247 29.364105,71.499949 25.531051,70.879998 23.14063,70.493375 18.450994,70.346623 16.314387,70.59158 c -1.196972,0.137231 -2.518784,0.454622 -3.999412,0.960334 L 10.103428,72.307273 9.6251176,71.862804 C 8.9116067,71.199774 6.6348853,67.682125 5.4150429,65.358026 3.376191,61.473517 1.844177,57.189997 0.96085142,52.904081 0.48843677,50.611914 0.47020129,50.315059 0.46612209,44.850353 c -0.004709,-6.308025 0.0895918,-7.160629 1.26504841,-11.43774 1.8461344,-6.717494 6.0223284,-14.69674 8.5262945,-16.290767 0.985929,-0.627643 3.61832,-1.732513 5.233018,-2.196408 1.740706,-0.500097 4.422377,-0.695489 9.547565,-0.695657 5.285953,-1.74e-4 7.031351,0.170308 13.722719,1.340367 9.305859,1.627231 13.336757,1.993044 17.23304,1.563933 5.269587,-0.580357 9.684874,-2.786641 14.188435,-7.089848 l 1.105491,-1.0563111 1.132633,0.9425876 c 9.944316,8.2757435 15.619282,19.1073705 16.564329,31.6157995 0.68203,9.027207 -1.477135,18.08136 -6.178658,25.909343 -2.096128,3.490026 -5.413638,7.556524 -8.23557,10.094894 -2.566746,2.308828 -5.583741,3.301672 -10.357009,3.408324 -1.585073,0.03542 -3.165643,0.02866 -3.512377,-0.01502 z m -3.61257,-18.995107 c 3.565542,-0.260151 4.625986,-0.531154 7.305069,-1.866839 2.477607,-1.235236 4.004542,-1.739858 7.65518,-2.529886 1.238338,-0.267987 2.307205,-0.54042 2.375259,-0.605404 0.06805,-0.06499 -1.644315,-1.076525 -3.805266,-2.247864 -4.535297,-2.45835 -5.163067,-2.906448 -4.997273,-3.567024 0.270474,-1.077658 6.06786,-7.001862 6.851974,-7.001862 0.232895,0 2.562943,1.002868 5.177881,2.228598 5.100119,2.390633 6.954071,3.175059 7.504098,3.175059 1.026135,0 1.555432,-1.948498 1.565728,-5.763901 0.0063,-2.316959 -0.04548,-2.888766 -0.30408,-3.361381 -0.739651,-1.35175 -1.870226,-1.751894 -4.914696,-1.739455 -2.586003,0.01057 -4.944783,0.531514 -8.192771,1.809416 -4.273484,1.681379 -6.887802,3.197423 -11.659801,6.761533 -4.309948,3.219013 -4.692508,3.373837 -5.819873,2.355328 C 54.309985,48.221875 52.769845,45.991357 48.947019,39.626818 45.390942,33.706388 44.273176,32.420236 41.604115,31.17775 39.388861,30.146516 37.432184,29.8206 32.331881,29.633306 29.067455,29.513429 20.963053,29.764802 17.832068,30.083043 8.7362836,31.007564 1.6127135,32.98137 2.44955,34.345248 c 0.1089145,0.17751 0.5354208,0.420428 0.9477917,0.539822 1.1863687,0.343485 5.7124092,0.750288 12.6335073,1.135508 7.676643,0.427271 8.527099,0.490791 11.077497,0.827377 2.489251,0.328515 3.659467,0.638376 4.688598,1.241485 2.099811,1.230573 9.724906,9.509817 10.913295,11.849537 0.213801,0.420936 0.863846,1.482992 1.444545,2.360127 0.580697,0.877132 1.055813,1.753746 1.055813,1.948029 0,0.843489 -3.864638,2.05585 -10.311979,3.234935 -1.75844,0.321581 -3.197163,0.649655 -3.197163,0.729051 0,0.185104 2.278671,1.330807 4.692299,2.359263 2.220042,0.945968 3.819955,1.371621 5.926876,1.576833 1.835917,0.178816 11.349264,0.05096 14.767881,-0.19847 z"
       id="path1839"
       transform="matrix(0.26458333,0,0,0.26458333,105.413,161.247)" />
    <path
       style="opacity:0.71;fill:#ffffff;stroke-width:0.180122"
       d="M 60.430898,80.943583 C 55.588976,80.20579 51.824935,79.122625 40.977732,75.34562 30.19184,71.589961 25.623423,70.529306 19.90347,70.452785 16.812393,70.411431 14.964488,70.67797 12.388191,71.536771 L 10.096448,72.300717 9.6226604,71.859524 C 8.8673016,71.156134 6.6110593,67.653613 5.3354097,65.204128 2.6234976,59.996752 1.0039841,54.757627 0.51916735,49.623584 0.25229496,46.797496 0.41820881,39.353613 0.79356099,37.31265 1.8401358,31.621938 4.6194491,24.637492 7.6507338,20.080496 9.2686458,17.648254 9.894136,17.123107 12.46787,16.036144 c 3.691651,-1.559093 4.227239,-1.646171 10.802476,-1.75632 6.747223,-0.11303 7.668898,-0.03609 15.545924,1.29767 3.170145,0.536779 6.736559,1.115277 7.925363,1.285549 2.752663,0.394263 8.773763,0.44641 10.717253,0.09282 4.388914,-0.798505 8.325173,-2.899814 12.374838,-6.606111 l 1.505619,-1.3779581 1.030166,0.8687743 c 1.988684,1.6771268 5.497111,5.2174708 6.937715,7.0008318 3.785716,4.686434 6.736594,10.480843 8.248166,16.196276 3.545941,13.407617 0.925164,27.208592 -7.237102,38.110477 -2.862392,3.823138 -6.114827,7.100794 -7.995296,8.057296 -2.40168,1.221615 -4.590997,1.68125 -8.379717,1.759272 -1.634606,0.03366 -3.215176,0.02415 -3.512377,-0.02114 z M 56.738399,61.946411 c 3.89091,-0.250115 4.903185,-0.496384 7.655181,-1.862367 2.607394,-1.294208 4.100062,-1.792503 7.614134,-2.541806 1.314831,-0.28036 2.365557,-0.584878 2.334947,-0.676706 -0.03061,-0.09183 -1.648101,-1.029337 -3.594426,-2.083356 -4.094264,-2.21722 -5.183863,-2.937307 -5.183863,-3.425875 0,-0.578545 1.458146,-2.330958 4.028061,-4.840964 1.807554,-1.765416 2.558761,-2.385471 2.890038,-2.385471 0.246196,0 2.536971,0.98069 5.090612,2.179311 5.355626,2.513806 7.166654,3.263992 7.696846,3.188273 0.84412,-0.120552 1.548827,-2.815788 1.548827,-5.923671 0,-3.910634 -1.06081,-4.922679 -5.133474,-4.897493 -1.089737,0.0067 -2.508197,0.108821 -3.152133,0.226849 -1.871245,0.342983 -5.66681,1.667821 -8.105486,2.829209 -2.84794,1.356296 -4.57791,2.433593 -8.230994,5.125646 -3.295507,2.428546 -4.819855,3.39602 -5.350754,3.39602 -0.99018,0 -3.849489,-3.79977 -7.590288,-10.086826 -2.455175,-4.126344 -3.6484,-5.868707 -4.824262,-7.044447 -1.743699,-1.743517 -4.310166,-2.814835 -7.686497,-3.208567 -3.84333,-0.448192 -14.417364,-0.31454 -19.500654,0.24648 -8.3939201,0.9264 -14.9026293,2.671534 -14.9026293,3.995742 0,0.853144 3.0220066,1.256676 13.9594473,1.864024 10.594859,0.588325 13.308687,0.932394 15.310362,1.9411 1.880114,0.94745 9.4114,9.083587 11.128556,12.022312 0.405209,0.693469 1.126871,1.858901 1.603695,2.589848 0.476824,0.730946 0.866952,1.479538 0.866952,1.663534 0,0.831823 -3.517374,1.973817 -9.636522,3.12871 -1.882273,0.355251 -3.543898,0.689181 -3.692499,0.742068 -0.392845,0.139816 0.728032,0.775337 3.602438,2.042528 2.977527,1.312653 4.683377,1.791938 7.077669,1.988579 2.139112,0.175682 10.137329,0.06697 14.176716,-0.192684 z"
       id="path1878"
       transform="matrix(0.26458333,0,0,0.26458333,105.413,161.247)" />
    <path
       style="opacity:0.71;fill:#ffffff;stroke-width:0.180122"
       d="M 58.809801,80.677457 C 54.919407,79.993552 50.73921,78.764319 42.328647,75.830994 30.239805,71.614805 26.32936,70.66231 20.533897,70.52229 c -3.866305,-0.09341 -5.248078,0.07846 -7.988904,0.993684 -1.174219,0.3921 -2.232295,0.712908 -2.351282,0.712908 -0.6355665,0 -2.9921411,-3.434894 -4.9671131,-7.23996 C 3.1737861,61.033888 1.7584777,57.002447 0.88243,52.61476 0.39833526,50.19017 0.21177842,43.48167 0.52445091,39.741994 1.0157609,33.865747 3.9996814,25.591994 7.5740469,20.195019 c 1.4859514,-2.243655 2.2715644,-2.993746 3.9275521,-3.749964 4.226651,-1.930128 4.853007,-2.044159 11.871498,-2.161251 6.931181,-0.115636 7.46166,-0.06878 16.657092,1.471337 3.790362,0.634836 8.066862,1.250557 9.503334,1.368268 2.938827,0.24082 6.262528,0.125214 8.476907,-0.294846 3.868425,-0.733828 7.72147,-2.815307 11.523868,-6.225388 l 1.809541,-1.6228399 1.482418,1.2585529 c 2.201163,1.868758 5.797482,5.636099 7.341309,7.690423 4.652115,6.190436 7.586655,13.424368 8.65574,21.337263 0.344371,2.54888 0.29558,8.986095 -0.08738,11.527802 -1.146449,7.609091 -4.062488,14.636517 -8.51687,20.525008 -2.854287,3.773238 -6.051102,6.945839 -7.990179,7.929659 -3.320556,1.684736 -8.702262,2.2576 -13.419081,1.428414 z m -2.450598,-18.72949 c 4.102081,-0.241414 5.238261,-0.50672 8.034377,-1.876097 2.642754,-1.294268 4.174209,-1.806185 7.61015,-2.543826 1.312638,-0.281802 2.386615,-0.562313 2.386615,-0.623358 0,-0.06105 -1.61982,-0.994772 -3.599601,-2.074949 -4.092045,-2.232638 -5.226372,-2.987694 -5.226372,-3.478898 0,-0.573245 1.466257,-2.333418 4.028061,-4.835502 1.816398,-1.774053 2.557911,-2.385471 2.893042,-2.385471 0.247849,0 2.451344,0.938754 4.896657,2.086118 4.848752,2.275083 7.312535,3.317539 7.840811,3.317539 0.907549,0 1.50692,-2.369958 1.503267,-5.944023 -0.0021,-2.003417 -0.06147,-2.551223 -0.337421,-3.110649 -0.671963,-1.362257 -1.837418,-1.779619 -4.948397,-1.77207 -2.530653,0.0061 -5.117517,0.594512 -8.436739,1.918898 -3.998585,1.595457 -6.364359,2.959208 -10.724301,6.182028 -3.219124,2.379539 -4.900431,3.446303 -5.431653,3.446303 -0.596166,0 -2.606858,-2.242337 -4.280131,-4.77323 -0.851461,-1.287872 -2.499582,-3.922154 -3.662489,-5.853962 -2.646189,-4.395819 -3.388284,-5.441612 -4.767385,-6.718417 -1.827043,-1.691519 -4.164869,-2.614457 -7.651521,-3.020704 -1.9563,-0.227937 -12.680611,-0.219392 -16.042337,0.01279 -6.706526,0.463182 -14.2926046,1.866751 -16.7427022,3.09772 -2.6336481,1.323183 -1.5508139,1.956972 4.2242298,2.47246 1.1392711,0.101693 4.9893764,0.35013 8.5557904,0.552079 10.303054,0.583418 13.166376,0.946574 15.086818,1.913469 1.672667,0.842145 8.722098,8.243742 10.524621,11.050392 2.1826,3.398461 3.118004,4.976883 3.118004,5.261399 0,0.835347 -3.486819,1.959683 -9.726583,3.136363 -1.931807,0.364297 -3.583919,0.727271 -3.671361,0.806611 -0.326658,0.296391 5.80365,3.012209 7.976201,3.533578 2.312174,0.554874 9.330349,0.649498 16.570349,0.223409 z"
       id="path1917"
       transform="matrix(0.26458333,0,0,0.26458333,105.413,161.247)" />
    <path
       style="opacity:0.71;fill:#ffffff;stroke-width:0.180122"
       d="M 58.449557,80.625549 C 54.964724,79.940677 51.563354,78.980777 46.47145,77.245207 29.46107,71.44724 26.940501,70.781347 20.984201,70.511904 c -3.617342,-0.163637 -5.717079,0.08643 -8.40926,1.001496 -1.157746,0.393516 -2.215823,0.715482 -2.351281,0.715482 -1.0074092,0 -5.0434988,-6.664027 -6.9818507,-11.527801 C 2.3237752,58.39752 1.4167188,55.294021 0.86358303,52.563967 0.4804802,50.673127 0.45108364,50.090191 0.4609722,44.58017 0.47281846,37.97929 0.55081567,37.339818 1.910973,32.692125 3.5464516,27.103652 7.0273483,20.171059 9.3783061,17.820101 c 1.4273619,-1.427362 5.7164819,-3.086867 8.7880589,-3.400192 2.417038,-0.246557 11.06283,-0.245638 13.317036,0.0014 0.962,0.105432 4.342845,0.629461 7.512991,1.16451 3.170145,0.535049 6.736559,1.102251 7.925363,1.26045 2.684632,0.357254 7.450932,0.481684 9.366339,0.244519 4.756346,-0.588928 8.863381,-2.598922 13.203085,-6.461629 l 1.855407,-1.6514768 0.846421,0.6881512 c 1.681256,1.3668796 5.693827,5.4130866 7.115891,7.1755416 8.594823,10.652114 11.79877,24.88526 8.59581,38.185843 -1.956991,8.126572 -6.08265,15.40349 -12.152613,21.435005 -1.872756,1.860893 -2.848411,2.552495 -4.663791,3.305964 -2.023144,0.839702 -3.799252,1.133574 -7.325151,1.21201 -2.763446,0.06147 -3.418662,0.01774 -5.313596,-0.354671 z M 59.260105,61.7203 c 2.29942,-0.329073 2.976225,-0.552648 5.403657,-1.78504 2.175624,-1.104549 3.452359,-1.532558 6.844633,-2.294577 1.337405,-0.300427 2.551347,-0.590324 2.697648,-0.644218 0.279805,-0.103073 -0.397463,-0.516031 -4.978885,-3.035831 -3.198969,-1.759445 -3.762013,-2.206015 -3.599214,-2.854665 0.166705,-0.664205 1.484477,-2.186316 4.1293,-4.76961 1.695093,-1.655657 2.373832,-2.206493 2.718836,-2.206493 0.252884,0 2.468932,0.941074 4.924556,2.091276 4.750648,2.225181 6.734225,3.072802 7.592637,3.244486 0.426849,0.08537 0.586149,0.02238 0.810918,-0.320662 0.604442,-0.922495 0.901769,-2.679283 0.909752,-5.375344 0.007,-2.368158 -0.02997,-2.682945 -0.396455,-3.374861 -0.267128,-0.504327 -0.662957,-0.901346 -1.167284,-1.170793 -0.707331,-0.377906 -0.980272,-0.406843 -3.735105,-0.395994 -2.872973,0.01131 -3.044063,0.03326 -5.134182,0.658553 -5.107315,1.52794 -9.022055,3.602108 -14.464511,7.663816 -2.6952,2.011428 -4.446696,3.103667 -4.976989,3.103667 -0.537706,0 -2.547785,-2.17653 -3.992329,-4.322925 -0.700067,-1.040204 -2.35123,-3.674487 -3.66925,-5.853962 C 46.280927,35.286806 45.543392,34.225771 44.286721,33.040661 42.69239,31.537115 41.066363,30.752454 38.275904,30.140062 36.556241,29.762666 25.281678,29.600745 20.896253,29.890464 11.33129,30.52236 2.3415847,32.595889 2.3415847,34.170207 c 0,0.817638 3.0852936,1.216873 14.3196913,1.852963 7.174304,0.406207 9.503701,0.602072 11.836545,0.995258 2.933793,0.494471 3.702456,0.97998 7.183746,4.537454 2.826541,2.888396 5.54334,6.066569 6.588569,7.707458 2.455674,3.855122 2.949458,4.712122 2.902329,5.037203 -0.122945,0.848042 -3.389027,1.892544 -9.59839,3.06959 -1.882273,0.356804 -3.539346,0.688334 -3.682385,0.736733 -0.362944,0.122809 0.52531,0.638514 3.136074,1.820753 4.848048,2.195355 5.026064,2.221381 14.59582,2.134038 5.5987,-0.0511 8.269396,-0.145706 9.636521,-0.341357 z"
       id="path1956"
       transform="matrix(0.26458333,0,0,0.26458333,105.413,161.247)" />
    <path
       style="opacity:0.71;fill:#ffffff;stroke-width:0.180122"
       d="M 59.170044,80.780555 C 55.88139,80.172107 51.460735,78.934855 46.201268,77.150857 28.187082,71.040488 26.294759,70.570826 19.633287,70.556863 c -3.853717,-0.0081 -4.894573,0.146335 -7.57133,1.123231 -0.827044,0.301834 -1.634412,0.548788 -1.794151,0.548788 -1.2958956,0 -5.9785261,-8.206483 -7.8111119,-13.689264 C 0.6782416,53.218795 0.27322634,50.199995 0.4146728,43.319317 0.50247627,39.04811 0.57013063,38.192879 0.9703765,36.294563 2.13821,30.755679 4.7861784,24.35363 7.7304818,19.950515 c 1.5147337,-2.265238 1.9681674,-2.676933 3.9713392,-3.605773 3.951955,-1.83246 5.735304,-2.115112 13.344983,-2.115112 5.696757,0 6.343384,0.06553 15.12038,1.532311 3.219679,0.538061 6.542928,1.06563 7.384998,1.172374 2.199151,0.278775 6.85797,0.3624 8.645851,0.155192 4.911685,-0.569245 8.937276,-2.553028 13.521551,-6.663324 l 1.620998,-1.4533974 0.849425,0.6772493 c 1.718584,1.3702341 6.687798,6.5237401 8.009385,8.3064281 2.956697,3.988287 5.111162,8.092794 6.613959,12.600366 5.384701,16.151168 1.215457,33.66939 -10.882976,45.7278 -2.658938,2.650143 -4.36939,3.636246 -7.484053,4.314677 -1.947004,0.424091 -7.388994,0.530423 -9.276278,0.181249 z M 58.71974,61.790501 c 2.374815,-0.283982 3.398774,-0.598857 5.600678,-1.72225 2.292971,-1.169852 3.809879,-1.681856 7.221948,-2.437627 1.417788,-0.314041 2.637982,-0.626445 2.71154,-0.694233 0.07356,-0.06779 -1.41643,-0.970879 -3.311087,-2.00687 -3.784123,-2.069143 -4.98549,-2.813455 -5.259042,-3.258268 -0.359147,-0.583992 0.316385,-1.510749 3.297891,-4.524345 2.398159,-2.423971 3.080726,-3.017042 3.472327,-3.017042 0.444678,0 1.977254,0.668191 7.340007,3.200181 2.296834,1.084434 5.073197,2.203476 5.466867,2.203476 0.85204,0 1.436426,-2.320077 1.451824,-5.763901 0.01084,-2.424185 -0.0188,-2.665224 -0.412668,-3.356051 -0.24618,-0.431788 -0.736843,-0.923359 -1.168631,-1.170792 -0.698772,-0.400429 -0.920511,-0.426248 -3.626234,-0.42223 -2.59273,0.0039 -3.05796,0.05406 -4.635803,0.500341 -3.254449,0.920488 -6.280672,2.198986 -9.239596,3.90348 -1.968664,1.134052 -2.859422,1.743556 -6.568437,4.494466 -2.59034,1.921209 -3.823453,2.609172 -4.411958,2.461467 -1.096238,-0.275138 -3.512274,-3.541231 -7.473654,-10.10318 -2.957023,-4.898251 -3.647954,-5.881767 -5.032546,-7.163655 -1.83831,-1.70195 -4.339953,-2.652344 -7.9866,-3.03417 -2.804404,-0.293638 -15.228336,-0.102165 -18.774803,0.28935 -5.83924,0.644627 -11.5819995,1.847168 -13.5912215,2.846016 -3.45286852,1.716531 -1.3750387,2.195621 13.0508565,3.009156 10.706703,0.603796 13.52845,1.022064 15.354012,2.275927 1.93593,1.329669 8.340302,8.267229 10.037842,10.873532 1.721269,2.642734 2.977345,4.781085 2.977345,5.068648 0,0.809153 -2.8881,1.798408 -8.572795,2.936423 -2.255343,0.451497 -4.24335,0.820902 -4.417794,0.820902 -0.748221,0 -0.423154,0.369418 0.877986,0.997766 3.846688,1.857649 5.55531,2.504809 7.609556,2.882208 1.652546,0.303599 15.293255,0.236408 18.01219,-0.08873 z"
       id="path1995"
       transform="matrix(0.26458333,0,0,0.26458333,105.413,161.247)" />
    <path
       style="opacity:0.71;fill:#ffffff;stroke-width:0.180122"
       d="m 60.160715,80.947728 c -5.499021,-1.020176 -8.781017,-1.95487 -17.651946,-5.027172 -11.33655,-3.92623 -15.376921,-4.97657 -20.439661,-5.313524 -4.40054,-0.29288 -7.059189,-0.0013 -10.058259,1.103227 -0.774528,0.285243 -1.557924,0.518623 -1.74088,0.518623 -0.8376722,0 -3.2049749,-3.52656 -5.501491,-8.195546 C 3.148138,60.739065 2.2696808,58.392863 1.4301648,55.117302 0.49653408,51.474529 0.31131237,49.370372 0.4154121,43.5895 0.49838721,38.981721 0.55498124,38.234681 0.96805937,36.294563 2.1624021,30.685056 4.7752232,24.370013 7.7301066,19.951076 c 1.501226,-2.245038 1.9682475,-2.674485 3.8936294,-3.580366 4.10139,-1.92968 6.076216,-2.215008 14.511302,-2.09663 l 5.836599,0.08191 7.024755,1.184208 c 3.863614,0.651315 7.754247,1.266982 8.645851,1.368149 9.952616,1.129284 15.399077,-0.505101 22.291603,-6.689308 l 1.397465,-1.2538518 0.854059,0.6898683 c 1.355122,1.0946005 5.36452,5.0681475 6.707187,6.6472115 5.019945,5.903779 8.576039,13.935542 9.848536,22.243818 0.395337,2.581206 0.442966,9.350403 0.08301,11.797984 -1.180751,8.028752 -3.926438,14.741348 -8.569229,20.949869 -2.932599,3.921587 -6.156439,7.072989 -8.330406,8.14323 -2.144306,1.055638 -4.236872,1.456617 -7.981194,1.529361 -1.83274,0.0356 -3.534892,0.02714 -3.78256,-0.0188 z M 58.71974,61.784988 c 2.437141,-0.290209 2.845061,-0.418652 5.805075,-1.827877 2.589227,-1.232699 4.998647,-1.988285 8.566403,-2.686394 0.625893,-0.122471 1.104379,-0.306013 1.069619,-0.410295 -0.03459,-0.10378 -1.719523,-1.09872 -3.744285,-2.210978 -4.335268,-2.38148 -4.963699,-2.845856 -4.789654,-3.539303 0.167724,-0.668269 1.480674,-2.185753 4.130346,-4.773782 1.739727,-1.699252 2.368852,-2.206493 2.736691,-2.206493 0.262703,0 1.951897,0.696272 3.753764,1.547268 4.311868,2.036441 8.007924,3.640963 8.71092,3.781563 0.708085,0.141617 0.99862,-0.246195 1.421726,-1.897738 0.381574,-1.489428 0.452792,-5.748109 0.1122,-6.709315 -0.268058,-0.756502 -1.241961,-1.692919 -1.973646,-1.89768 -0.270617,-0.07573 -1.707855,-0.130551 -3.193861,-0.121818 -3.015876,0.01772 -4.620606,0.349024 -7.879528,1.626771 -4.082933,1.60082 -6.988261,3.281145 -11.736943,6.788174 -3.190681,2.356404 -4.445965,3.087124 -5.045003,2.936774 C 55.518127,49.89638 52.844538,46.216151 48.345287,38.733657 46.401504,35.50104 45.785323,34.630824 44.58017,33.416282 42.384494,31.203497 40.25731,30.32753 35.995979,29.881343 33.621907,29.632764 21.320305,29.769815 18.282373,30.07869 11.233048,30.795413 4.8854717,32.184563 3.0205697,33.418697 c -2.12436763,1.405841 0.133636,1.829052 13.9108893,2.607281 10.578519,0.597543 13.443436,1.023388 15.254855,2.267504 1.947172,1.337355 8.310025,8.22386 10.052492,10.879797 1.694721,2.583162 2.971791,4.756227 2.971791,5.056811 0,0.821703 -2.955953,1.838772 -8.617046,2.964909 -2.223639,0.44234 -4.193504,0.804253 -4.377477,0.804253 -0.183973,0 -0.334498,0.07173 -0.334498,0.159406 0,0.232478 0.567828,0.553942 2.845017,1.610645 2.46368,1.143241 4.76745,1.932843 6.3412,2.173405 1.532706,0.234288 15.400475,0.11038 17.651947,-0.15772 z"
       id="path2034"
       transform="matrix(0.26458333,0,0,0.26458333,105.413,161.247)" />
    <path
       style="opacity:0.71;fill:#ffffff;stroke-width:0.180122"
       d="M 60.070654,80.940111 C 55.900302,80.27532 51.065706,78.893263 42.328647,75.868234 29.474633,71.417793 25.931552,70.591481 19.633287,70.575246 c -3.681768,-0.0095 -4.988423,0.183582 -7.53688,1.113654 -0.813773,0.296991 -1.632474,0.539982 -1.819337,0.539982 -0.8322994,0 -3.3615366,-3.759953 -5.6083058,-8.337284 C 3.0732321,60.641028 1.7168014,56.719677 0.97944506,53.226022 0.53426784,51.116735 0.47690047,50.422983 0.40117697,46.232929 0.29913864,40.58678 0.51917011,37.903307 1.3487193,34.676836 2.7888512,29.075549 5.1330215,23.731788 7.9682618,19.586954 c 1.33224,-1.947599 1.7864438,-2.338431 3.8297232,-3.295388 3.798817,-1.779153 5.587372,-2.060716 13.094642,-2.061428 6.081259,-5.77e-4 6.66758,0.05773 15.364618,1.52803 8.364654,1.414106 11.509067,1.694839 15.190193,1.356182 5.463645,-0.502645 9.383146,-2.352344 14.323202,-6.759432 l 1.558838,-1.3906605 0.663736,0.506256 c 1.205155,0.9192155 5.671873,5.3604615 7.050851,7.0106405 4.951551,5.925365 8.470061,13.896659 9.659905,21.884811 0.414284,2.781341 0.543446,7.244049 0.291939,10.086826 -0.875179,9.892153 -4.732711,18.641979 -11.61609,26.348138 -2.014431,2.25522 -4.022556,3.965357 -5.464275,4.653426 -2.206162,1.052905 -4.251288,1.440178 -7.972269,1.509667 -1.83274,0.03423 -3.57542,0.02347 -3.872621,-0.02391 z M 55.822218,61.953162 c 4.621847,-0.262937 5.539447,-0.470394 8.657741,-1.957392 2.824942,-1.347108 3.898421,-1.703485 7.43715,-2.468997 1.264998,-0.273651 2.273184,-0.577983 2.240412,-0.676295 -0.03277,-0.09831 -1.716207,-1.088776 -3.740969,-2.201034 -4.335268,-2.38148 -4.963699,-2.845856 -4.789654,-3.539303 0.167724,-0.668269 1.480674,-2.185753 4.130346,-4.773782 1.727047,-1.686869 2.370305,-2.206493 2.73148,-2.206493 0.259837,0 2.313776,0.858378 4.564311,1.907507 4.963806,2.313972 7.198644,3.279935 7.924081,3.425023 0.702162,0.140432 0.996586,-0.279412 1.404286,-2.002491 0.363747,-1.537315 0.422719,-5.841792 0.09128,-6.662294 -0.584729,-1.447512 -1.535026,-1.929877 -4.008989,-2.034935 -2.634942,-0.111893 -4.452032,0.185908 -7.617298,1.248391 -4.533254,1.521677 -7.594802,3.202122 -12.884456,7.072115 -3.475603,2.542806 -4.692478,3.252753 -5.309778,3.097821 -0.443721,-0.111367 -1.717566,-1.367721 -2.665422,-2.628821 -1.126237,-1.498434 -2.757122,-4.027529 -5.168744,-8.015425 -2.636999,-4.360585 -3.532396,-5.616653 -4.819338,-6.760602 -1.19671,-1.063742 -3.432145,-2.096636 -5.558338,-2.56826 -1.692105,-0.375337 -2.200092,-0.395849 -9.710871,-0.392142 -8.685858,0.0043 -10.961878,0.161528 -17.001031,1.174526 -4.7762202,0.801154 -7.9846224,1.736039 -8.9140961,2.597446 -1.4059151,1.302959 0.5943974,1.646178 14.2072041,2.437713 9.7382,0.566242 12.608513,0.928196 14.457109,1.823087 1.675511,0.8111 8.458057,7.906073 10.567785,11.054571 1.736357,2.591288 3.164183,5.0029 3.164183,5.344332 0,0.843734 -2.869118,1.813948 -8.7997,2.975681 -2.342525,0.458873 -4.334558,0.900701 -4.426741,0.981839 -0.220666,0.194229 4.217243,2.321659 6.291748,3.016118 0.891603,0.298472 2.147954,0.617792 2.791889,0.709601 1.643343,0.234299 10.786357,0.248238 14.754425,0.02249 z"
       id="path2073"
       transform="matrix(0.26458333,0,0,0.26458333,105.413,161.247)" />
    <path
       style="opacity:0.71;fill:#ffffff;stroke-width:0.180122"
       d="m 58.989923,80.777048 c -4.149685,-0.777163 -8.213064,-2.00132 -19.90347,-5.996242 -5.366525,-1.833884 -8.141871,-2.662904 -11.167558,-3.335845 -3.00938,-0.669315 -4.716127,-0.837558 -8.461005,-0.834049 -3.64661,0.0034 -4.671431,0.152605 -7.283458,1.060275 -0.882692,0.306733 -1.737582,0.557695 -1.899756,0.557695 -1.3969155,0 -5.9905933,-8.121457 -7.942061,-14.041278 C 0.79638706,53.527422 0.52134912,51.823402 0.41249398,46.291329 0.29841516,40.493786 0.49918269,37.98139 1.3369465,34.722771 c 1.4713481,-5.723048 3.733094,-10.88316 6.6342306,-15.135817 1.327943,-1.946577 1.782344,-2.337876 3.8268079,-3.295388 3.798817,-1.779153 5.587372,-2.060716 13.094642,-2.061428 6.03482,-5.77e-4 6.747867,0.0687 14.871136,1.444836 7.486113,1.268194 9.375833,1.482671 13.102015,1.487038 2.64814,0.0031 3.579935,-0.06769 5.085502,-0.386371 3.266311,-0.691376 5.343925,-1.600646 8.360522,-3.658994 1.353242,-0.923371 2.221321,-1.638938 4.513976,-3.7209153 l 0.488175,-0.4433158 0.682617,0.5163924 c 1.250244,0.9457957 6.014715,5.7290437 7.343647,7.3725897 4.896119,6.055229 8.15583,13.51529 9.365916,21.434506 0.402428,2.633629 0.543388,7.682469 0.289159,10.357009 -0.836595,8.801147 -4.212443,17.068168 -9.856103,24.136335 -1.635458,2.048262 -4.784616,5.191427 -6.009697,5.998263 -1.164523,0.766953 -2.961327,1.470827 -4.752439,1.861706 -1.872501,0.408639 -7.519677,0.497572 -9.38713,0.147831 z M 58.629679,61.779044 c 2.449079,-0.307584 3.487017,-0.626291 5.888105,-1.80799 2.403389,-1.182834 3.977333,-1.71024 7.260794,-2.432984 1.188804,-0.261678 2.228603,-0.538792 2.310665,-0.61581 0.08206,-0.07702 -1.521434,-1.061763 -3.563323,-2.188319 -4.030296,-2.223607 -4.961548,-2.867998 -4.961548,-3.433212 0,-0.597556 1.065909,-1.876605 3.836904,-4.604126 1.970586,-1.939672 2.719052,-2.566737 3.06366,-2.566737 0.445133,0 2.509244,0.892203 6.878761,2.973313 3.055513,1.455277 5.649135,2.462461 6.029921,2.341603 0.881223,-0.279688 1.544047,-4.132758 1.264377,-7.349966 -0.246063,-2.830617 -1.658224,-3.583702 -6.206133,-3.309634 -2.898096,0.174647 -6.751291,1.376042 -10.611474,3.308575 -2.594195,1.298738 -4.235288,2.342867 -7.931171,5.046137 -3.399889,2.48677 -4.620847,3.195769 -5.237061,3.041109 -1.134769,-0.28481 -3.526122,-3.507618 -7.563992,-10.193941 -3.768067,-6.239554 -4.694436,-7.325518 -7.389944,-8.663065 -2.479551,-1.23039 -3.943319,-1.442193 -10.717253,-1.550765 -6.070184,-0.09729 -10.967302,0.09347 -14.955118,0.582559 -6.6323443,0.81343 -12.0313744,2.1382 -13.2259182,3.245267 -1.3944037,1.292288 0.5302222,1.618098 14.3116502,2.422742 11.141865,0.650532 13.360407,0.998756 15.256942,2.394746 2.029,1.493492 8.289064,8.306239 9.84811,10.71757 3.187561,4.93011 3.282455,5.131848 2.653491,5.641153 -0.928271,0.751667 -4.258304,1.684533 -9.566231,2.679856 -1.733674,0.325091 -3.227864,0.659846 -3.320423,0.743896 -0.217236,0.19727 4.259106,2.338643 6.360262,3.042596 0.877601,0.294024 2.153491,0.612137 2.835308,0.706917 1.629133,0.226471 15.35603,0.09157 17.450639,-0.17149 z"
       id="path2112"
       transform="matrix(0.26458333,0,0,0.26458333,105.413,161.247)" />
    <path
       style="opacity:0.71;fill:#ffffff;stroke-width:0.180122"
       d="m 58.989923,80.768663 c -3.863756,-0.680702 -7.75191,-1.850437 -20.263714,-6.096252 -5.494795,-1.864631 -8.678897,-2.800184 -11.707924,-3.440026 -1.909681,-0.403396 -2.864304,-0.490528 -6.287551,-0.57389 -4.56445,-0.111152 -5.580469,0.0054 -8.375494,0.960586 -0.981382,0.335391 -1.930496,0.609801 -2.109143,0.609801 -0.4567428,0 -1.1028665,-0.723811 -2.4118374,-2.701828 C 4.613332,64.659834 2.1435247,58.817396 0.98130113,53.316083 0.55575269,51.301776 0.49569136,50.550702 0.41123253,46.18731 0.27002775,38.892256 0.66813804,36.053002 2.6160192,30.463154 4.650562,24.624615 8.0857973,18.50448 10.062785,17.196171 c 1.100517,-0.728287 4.120367,-1.986785 5.878003,-2.449609 1.579668,-0.415962 1.807529,-0.426713 8.916034,-0.420705 l 7.294937,0.0062 6.484389,1.112146 c 8.729521,1.497212 8.55773,1.472579 11.637355,1.668652 8.125665,0.517344 13.328171,-1.257915 19.253551,-6.569917 0.941137,-0.8437133 1.75958,-1.5346507 1.818763,-1.5354165 0.259856,-0.00336 2.972996,2.4917305 5.209175,4.7905305 3.534922,3.633912 5.724082,6.675377 7.836598,10.887616 4.769978,9.511064 5.997564,20.284205 3.485784,30.590811 -1.49229,6.123328 -4.487303,12.159104 -8.590728,17.312681 -1.832402,2.301355 -4.914369,5.370623 -6.277319,6.25146 -1.457635,0.942027 -4.038048,1.780295 -6.222034,2.021276 -2.361625,0.260581 -6.038739,0.216629 -7.79737,-0.0932 z M 55.443308,61.958034 c 4.789454,-0.232443 5.821678,-0.457965 9.040333,-1.975152 2.810004,-1.32456 3.936663,-1.701925 7.294937,-2.443375 1.188804,-0.262466 2.224001,-0.535625 2.300435,-0.607018 0.129195,-0.120671 -0.832761,-0.69446 -5.582348,-3.329768 -2.166011,-1.201811 -2.932293,-1.804137 -2.932293,-2.30489 0,-0.594629 1.069793,-1.877529 3.836904,-4.601228 2.011461,-1.979906 2.715077,-2.566737 3.077534,-2.566737 0.258439,0 1.706126,0.575336 3.217082,1.278525 7.107616,3.307836 9.273401,4.201458 9.744517,4.020674 0.340472,-0.130652 0.801089,-1.213777 1.019281,-2.396803 0.271941,-1.474446 0.227984,-5.678547 -0.06675,-6.383938 -0.566619,-1.356109 -1.948548,-1.922115 -4.692932,-1.922115 -3.121095,0 -7.06896,1.072125 -11.154404,3.029211 -2.919241,1.39843 -4.826267,2.583038 -8.590175,5.336051 -3.145801,2.300915 -4.562396,3.166799 -5.166015,3.157694 -1.03825,-0.01566 -3.40143,-3.163086 -7.705091,-10.262103 -2.852268,-4.704901 -3.39312,-5.487399 -4.672764,-6.760492 -1.975282,-1.965168 -4.577011,-2.974158 -8.567304,-3.32253 -2.702354,-0.235931 -10.193415,-0.233633 -14.409752,0.0044 -9.768454,0.55152 -19.5852036,2.822249 -18.9832038,4.391035 0.2519365,0.656535 3.3760714,1.035411 13.4894858,1.635917 10.822825,0.64263 13.622358,0.989673 15.570919,1.930241 1.363528,0.658174 6.56216,5.911111 9.470583,9.569514 0.64185,0.807361 1.559207,2.116368 2.038572,2.908904 0.479368,0.792536 1.168161,1.922537 1.530655,2.51111 0.362495,0.588575 0.65908,1.217941 0.65908,1.398593 0,0.833743 -2.903709,1.817336 -8.864215,3.002635 -2.34911,0.467141 -4.323077,0.901318 -4.386595,0.964836 -0.236408,0.236408 5.138132,2.69792 7.182538,3.289566 0.575597,0.166577 1.588783,0.366098 2.251523,0.443383 1.76834,0.206211 9.834206,0.208415 14.04946,0.0038 z"
       id="path2151"
       transform="matrix(0.26458333,0,0,0.26458333,105.413,161.247)" />
    <path
       style="opacity:0.71;fill:#ffffff;stroke-width:0.180122"
       d="M 58.989923,80.767167 C 55.72522,80.188615 51.765028,79.054895 45.030475,76.77087 28.736246,71.244676 26.086605,70.604871 19.520109,70.610912 c -3.713476,0.0034 -4.724123,0.149294 -7.345677,1.060275 -0.882692,0.306733 -1.757902,0.557695 -1.944911,0.557695 -0.4661704,0 -1.0788086,-0.689641 -2.4001499,-2.701828 C 4.5605455,64.549167 2.1478018,58.837642 0.98130113,53.316083 0.55575269,51.301776 0.49569136,50.550702 0.41123253,46.18731 0.35331936,43.195345 0.39452842,40.514309 0.51784083,39.251442 1.0209692,34.098805 3.5308668,26.87466 6.6148217,21.702729 c 2.3242945,-3.897946 2.9317799,-4.473371 6.2185773,-5.890386 3.315519,-1.429399 3.796772,-1.489439 11.933362,-1.488786 5.89112,4.68e-4 7.516894,0.05491 8.916034,0.298531 5.631441,0.980564 11.727932,1.976782 13.599204,2.222225 2.843577,0.372973 8.126187,0.379344 10.185198,0.01228 4.343426,-0.774303 8.170481,-2.781442 12.0335,-6.311094 0.92664,-0.8466745 1.745082,-1.539408 1.818762,-1.539408 0.623402,0 7.055341,6.473737 8.96401,9.022264 8.07279,10.77909 10.830406,24.768657 7.454918,37.81927 -1.501578,5.805535 -4.392376,11.579402 -8.305807,16.589418 -1.661271,2.126777 -5.114986,5.573775 -6.423253,6.410764 -1.412055,0.903387 -4.010745,1.761073 -6.094041,2.01131 -2.204096,0.264746 -6.172345,0.218705 -7.925363,-0.09195 z M 58.26018,61.784833 c 2.547682,-0.256827 3.647301,-0.580398 6.403582,-1.884304 2.69892,-1.276771 3.729538,-1.621436 7.024755,-2.349265 1.238338,-0.273517 2.314415,-0.554194 2.391282,-0.623726 0.07687,-0.06953 -1.52745,-1.052402 -3.565149,-2.184153 -4.026586,-2.236392 -4.950278,-2.87877 -4.950278,-3.442656 0,-0.597556 1.065909,-1.876605 3.836904,-4.604126 1.970586,-1.939672 2.719052,-2.566737 3.06366,-2.566737 0.435985,0 2.388883,0.83871 6.698639,2.876864 3.622614,1.713193 5.871072,2.578041 6.287258,2.418334 0.33101,-0.12702 0.793107,-1.22302 1.008857,-2.392802 0.233141,-1.264074 0.228826,-5.327341 -0.0066,-6.174802 -0.251549,-0.905669 -1.197304,-1.690052 -2.330869,-1.933159 -3.29472,-0.706589 -8.421899,0.366339 -13.604539,2.846926 -2.713819,1.298926 -4.739423,2.55305 -8.213231,5.085108 -3.524274,2.568844 -4.556691,3.222548 -5.273094,3.338803 -0.50618,0.08214 -0.692264,-0.01119 -1.4066,-0.705439 -1.464613,-1.42344 -3.44813,-4.339394 -7.260374,-10.673429 -2.079305,-3.45476 -2.739409,-4.386954 -3.953978,-5.583779 -2.00092,-1.97169 -4.69476,-3.003618 -8.687238,-3.327817 -2.880124,-0.233872 -10.008852,-0.233476 -14.108581,7.2e-4 -8.51575,0.486596 -17.2004629,2.199577 -18.8358487,3.7152 -0.4495176,0.4166 -0.4591601,0.459804 -0.1731525,0.775839 0.5653829,0.62474 3.2240407,0.930558 13.3528852,1.535945 10.771427,0.643793 13.418828,0.966047 15.500282,1.886775 0.481477,0.212979 1.692303,1.241043 3.227518,2.740354 3.811524,3.722385 6.840434,7.272483 8.34804,9.784499 0.475647,0.792537 1.159886,1.922537 1.520529,2.511111 0.360644,0.588575 0.655716,1.217941 0.655716,1.398592 0,0.823083 -2.822514,1.788823 -8.608071,2.945305 -2.249787,0.449714 -4.252633,0.883191 -4.450767,0.963284 -0.301016,0.121684 -0.121849,0.265669 1.089766,0.875778 3.545043,1.785109 5.920694,2.619223 8.349638,2.931641 1.517876,0.195234 14.305079,0.05336 16.669017,-0.184949 z"
       id="path2190"
       transform="matrix(0.26458333,0,0,0.26458333,105.413,161.247)" />
    <path
       style="opacity:0.71;fill:#ffffff;stroke-width:0.127365"
       d="M 13.054955,13.254708 C 20.384161,5.8199792 29.874803,1.334652 40.565886,0.25289881 c 1.809519,-0.18309217 6.464,-0.18063484 8.342434,0.004404 7.144533,0.70378712 14.021108,3.09071909 19.906839,6.90987389 l 1.375172,0.8923259 -0.993075,0.5597908 c -2.343649,1.321102 -3.783672,1.8735516 -6.034231,2.3149696 -2.751931,0.539755 -3.561317,0.592349 -9.096405,0.591092 -5.441025,-0.0012 -6.568807,-0.05679 -12.92759,-0.636845 C 29.83666,9.8575016 25.466841,9.7385832 22.42172,10.379144 c -2.225548,0.468159 -5.948228,1.87745 -8.816494,3.337653 -0.933108,0.475035 -1.753874,0.885165 -1.823925,0.9114 -0.07005,0.02624 0.503094,-0.591834 1.273654,-1.373489 z"
       id="path2229"
       transform="matrix(0.26458333,0,0,0.26458333,105.413,161.247)" />
    <path
       style="opacity:0.71;fill:#ffffff;stroke-width:0.127365"
       d="m 13.439441,12.981234 c 2.336514,-2.359355 4.787813,-4.2918295 8.127669,-6.4074213 3.584716,-2.2706959 9.205617,-4.4829139 13.904159,-5.4722592 3.3879,-0.71337098 5.182962,-0.88637335 9.17031,-0.88380507 5.403582,0.003481 8.58085,0.4708935 13.373369,1.96737767 3.961811,1.2370921 8.700478,3.5129287 11.694729,5.6166198 l 0.359208,0.2523708 -0.415345,0.2525866 c -1.709457,1.0395827 -3.986624,2.0035797 -5.647923,2.3909437 -2.914954,0.679678 -3.252295,0.70217 -10.384776,0.692379 -5.858682,-0.008 -7.057314,-0.04398 -9.679772,-0.290221 C 31.272344,9.9102512 25.957215,9.6949194 22.884443,10.246738 c -2.086593,0.374717 -5.479045,1.599823 -8.797379,3.176971 -0.973462,0.46267 -1.803446,0.841218 -1.844409,0.841218 -0.04096,0 0.497591,-0.577662 1.196786,-1.283693 z"
       id="path2268"
       transform="matrix(0.26458333,0,0,0.26458333,105.413,161.247)" />
    <path
       style="opacity:0.71;fill:#ffffff;stroke-width:0.127365"
       d="M 12.92759,13.499682 C 14.827018,11.514625 17.601872,9.2336549 20.314784,7.4273008 25.463397,3.9991695 31.725293,1.6335027 38.464356,0.57061591 40.253861,0.28837474 46.158295,0.17229969 48.720781,0.36898519 55.867427,0.91753097 63.356662,3.5923333 69.796249,7.8961495 c 0.257334,0.1719864 0.03101,0.3405279 -1.524071,1.1349493 -1.711235,0.8741946 -3.401352,1.4751432 -5.305432,1.8864312 l -1.640297,0.354309 -7.832974,-7.79e-4 c -7.828332,-7.77e-4 -7.835576,-10e-4 -12.22708,-0.411499 -7.602435,-0.710602 -9.674956,-0.839596 -13.628099,-0.848215 -3.435207,-0.0075 -3.868391,0.01621 -5.053491,0.276416 -2.228919,0.4894 -6.197824,1.961873 -8.82934,3.275704 -1.422832,0.710374 -1.558627,0.699911 -0.827875,-0.06378 z"
       id="path2307"
       transform="matrix(0.26458333,0,0,0.26458333,105.413,161.247)" />
    <path
       style="opacity:0.71;fill:#ffffff;stroke-width:0.127365"
       d="m 12.609176,13.892513 c 0,-0.06473 0.644788,-0.719327 1.432861,-1.45467 C 19.94135,6.9332609 26.161179,3.5241184 33.942884,1.5300163 38.424875,0.38148296 43.192693,0.00558831 48.460981,0.38540978 c 4.333133,0.31240077 8.578174,1.32782052 13.056516,3.12313702 2.419483,0.9699436 7.347992,3.6087733 8.185471,4.3826764 0.211975,0.1958846 0.17104,0.2382609 -0.70051,0.725161 -1.996974,1.1156286 -3.937462,1.8297768 -6.402355,2.3562268 -1.385221,0.295854 -1.487912,0.299148 -9.106628,0.292053 -7.634889,-0.0071 -7.745935,-0.01091 -12.099714,-0.413855 -8.877212,-0.821596 -14.363965,-1.0805141 -17.130649,-0.808391 -2.553829,0.251188 -5.722895,1.27978 -9.905545,3.21507 -1.755845,0.812419 -1.748391,0.809712 -1.748391,0.635025 z"
       id="path2346"
       transform="matrix(0.26458333,0,0,0.26458333,105.413,161.247)" />
    <path
       style="opacity:0.71;fill:#ffffff;stroke-width:0.127365"
       d="m 12.481811,14.020969 c 0,-0.19992 2.784492,-2.783088 4.394687,-4.0769455 6.066035,-4.8743056 13.515353,-8.1207712 21.39681,-9.32488251 2.154175,-0.32910981 7.597021,-0.46052827 10.337195,-0.2495933 5.536723,0.42620965 10.69072,1.90032621 16.123078,4.61142961 2.70214,1.3485449 5.219643,2.8675156 5.14901,3.1067267 -0.06831,0.2313383 -3.310465,1.778241 -4.607814,2.198488 -2.925108,0.947521 -3.10285,0.964986 -10.380282,1.019955 -6.930515,0.05235 -8.824923,-0.01752 -14.58334,-0.537828 -6.389813,-0.577363 -9.155593,-0.742422 -12.672859,-0.756307 -2.460373,-0.0097 -3.786779,0.03785 -4.45779,0.159841 -2.067116,0.375812 -5.823009,1.697562 -8.724531,3.070281 -1.749773,0.827824 -1.974164,0.91635 -1.974164,0.778835 z"
       id="path2385"
       transform="matrix(0.26458333,0,0,0.26458333,105.413,161.247)" />
    <path
       style="opacity:0.71;fill:#ffffff;stroke-width:0.127365"
       d="m 12.481811,14.023889 c 0,-0.20012 2.788007,-2.785282 4.420471,-4.0988515 6.078766,-4.8913087 13.94955,-8.2851101 21.68944,-9.35226447 2.015722,-0.27792208 7.582856,-0.39088368 10.018781,-0.20328905 5.735662,0.44171303 10.955917,1.97561122 16.664274,4.89656152 2.454298,1.2558575 4.672011,2.6135963 4.608862,2.8216585 -0.06975,0.2298066 -3.307175,1.7767527 -4.608862,2.202262 -0.70051,0.22899 -1.846799,0.543473 -2.547309,0.69885 -1.241648,0.275404 -1.47369,0.282414 -9.233993,0.278939 l -7.960338,-0.0036 -5.221982,-0.469084 C 28.880091,9.7682698 24.819336,9.7044904 21.744159,10.503489 c -1.73015,0.449531 -4.131633,1.335002 -6.460309,2.382036 -1.08579,0.4882 -2.160436,0.970396 -2.388101,1.071546 -0.227666,0.101149 -0.413938,0.131218 -0.413938,0.06682 z"
       id="path2424"
       transform="matrix(0.26458333,0,0,0.26458333,105.413,161.247)" />
    <path
       style="opacity:0.71;fill:#ffffff;stroke-width:0.127365"
       d="M 41.393761,89.204581 C 35.145183,88.663869 29.621955,87.09275 24.263112,84.331657 c -3.479121,-1.792585 -6.759761,-4.06831 -9.644306,-6.690095 -1.540193,-1.399894 -4.228052,-4.268326 -4.110128,-4.38625 0.09009,-0.09009 2.729178,-0.372729 4.456759,-0.477313 2.595431,-0.157123 6.157311,0.356722 9.805992,1.414635 3.754274,1.088529 7.490867,2.642722 14.075023,5.854343 5.812,2.834979 8.789815,4.1363 11.607612,5.072585 1.334299,0.443355 5.174047,1.233281 6.414595,1.31963 1.141697,0.07947 2.711532,-0.149697 4.532344,-0.66164 1.387798,-0.390195 1.518471,-0.38787 0.639227,0.01137 -3.051197,1.385497 -7.716558,2.637302 -11.869327,3.184763 -1.502958,0.198136 -7.371601,0.352513 -8.777142,0.230886 z"
       id="path2463"
       transform="matrix(0.26458333,0,0,0.26458333,105.413,161.247)" />
    <path
       style="opacity:0.71;fill:#ffffff;stroke-width:0.127365"
       d="M 40.374837,89.065776 C 33.458974,88.301689 27.040157,86.115538 21.270025,82.558968 18.25389,80.699896 15.79748,78.743871 13.176096,76.11382 12.051856,74.985864 11.006501,73.883089 10.853084,73.663209 l -0.27894,-0.399782 1.304088,-0.172391 c 0.750097,-0.09916 2.467373,-0.172395 4.042445,-0.172401 2.310292,-9e-6 2.997186,0.04643 4.394107,0.297053 5.264568,0.944536 9.282511,2.439248 18.531668,6.893949 8.304431,3.99969 10.844044,4.997246 14.965437,5.8784 2.320375,0.496098 4.580886,0.568023 6.177223,0.196552 1.650332,-0.384037 1.79659,-0.395077 1.146288,-0.08652 -1.571282,0.74554 -6.235474,2.035135 -9.233992,2.553091 -0.840612,0.145205 -2.359445,0.316589 -3.375184,0.380854 -1.77893,0.112552 -7.233767,0.135145 -8.151387,0.03377 z"
       id="path2502"
       transform="matrix(0.26458333,0,0,0.26458333,105.413,161.247)" />
    <path
       style="opacity:0.71;fill:#ffffff;stroke-width:0.127365"
       d="m 40.334477,89.029869 c -8.288702,-0.803373 -16.748489,-4.269111 -23.522242,-9.636406 -1.195182,-0.947023 -6.11354,-5.76557 -6.11354,-5.989476 0,-0.233266 0.792098,-0.301313 4.394107,-0.377486 3.152046,-0.06666 3.576965,-0.04945 5.094617,0.20634 5.083239,0.856735 8.856131,2.243999 18.276937,6.720294 9.16974,4.357 11.286363,5.191246 15.28385,6.023973 2.394022,0.498706 4.034118,0.597038 5.540396,0.332177 2.102198,-0.369648 2.091592,-0.370074 1.098961,0.04416 -2.152525,0.898273 -7.213191,2.154455 -9.974504,2.47592 -1.893315,0.220414 -8.51419,0.35213 -10.078582,0.200504 z"
       id="path2541"
       transform="matrix(0.26458333,0,0,0.26458333,105.413,161.247)" />
    <path
       style="opacity:0.71;fill:#ffffff;stroke-width:0.127365"
       d="M 38.040094,88.7019 C 29.442232,87.31942 21.264848,83.453375 15.140052,77.875383 c -2.244053,-2.04371 -4.489244,-4.388596 -4.342509,-4.535331 0.19641,-0.19641 4.042726,-0.390645 6.396788,-0.323032 2.295017,0.06592 3.627832,0.263919 6.29867,0.935724 3.703374,0.931522 7.422151,2.43837 15.668351,6.348812 7.831041,3.713568 10.260918,4.691051 13.631614,5.48368 2.983145,0.701494 4.872261,0.842232 6.750367,0.502897 1.411387,-0.25501 1.533895,-0.222945 0.573144,0.15001 -2.495825,0.968858 -7.819497,2.205761 -10.57133,2.456144 -0.805586,0.0733 -3.298764,0.128337 -5.540395,0.122308 -3.64897,-0.0098 -4.273468,-0.04276 -5.964658,-0.314695 z"
       id="path2580"
       transform="matrix(0.26458333,0,0,0.26458333,105.413,161.247)" />
    <path
       style="opacity:0.71;fill:#ffffff;stroke-width:0.127365"
       d="m 40.756934,89.010494 c -1.686718,-0.08647 -3.090069,-0.296744 -5.476713,-0.820619 -6.698816,-1.47041 -13.122778,-4.538839 -18.467986,-8.821303 -1.3347,-1.069332 -6.11354,-5.733076 -6.11354,-5.966298 0,-0.252588 1.571581,-0.358315 5.285665,-0.355592 3.520488,0.0026 3.590737,0.0078 5.476713,0.408836 5.008432,1.064927 8.029146,2.24364 18.850082,7.355488 7.317236,3.456688 9.361523,4.251931 13.064718,5.082273 2.394529,0.536909 3.842947,0.663116 5.371426,0.468038 2.311182,-0.294973 2.219681,-0.288633 1.978564,-0.137122 -0.386765,0.243029 -2.909616,1.026008 -4.93981,1.533093 -2.662359,0.664981 -4.426803,0.989952 -6.212428,1.144184 -1.841413,0.159051 -6.674898,0.218819 -8.816691,0.109022 z"
       id="path2619"
       transform="matrix(0.26458333,0,0,0.26458333,105.413,161.247)" />
    <path
       style="opacity:0.71;fill:#ffffff;stroke-width:0.127365"
       d="m 39.546962,88.943321 c -8.097284,-0.994716 -16.362439,-4.458786 -22.607361,-9.475139 -1.449399,-1.164257 -6.242229,-5.82064 -6.241409,-6.063723 8.63e-4,-0.255781 1.563639,-0.360642 5.286168,-0.354696 3.386718,0.0054 3.651856,0.0234 5.267259,0.357469 4.852467,1.003489 8.2093,2.292915 18.040612,6.929753 7.855783,3.705101 10.264373,4.668305 13.564417,5.42446 2.866387,0.656789 4.229887,0.799054 5.796975,0.604847 2.398661,-0.297263 2.309439,-0.291144 2.07224,-0.142097 -0.386299,0.242736 -2.908454,1.025706 -4.93981,1.533498 -2.437612,0.609347 -4.37233,0.971517 -6.095193,1.140989 -1.207761,0.118803 -9.252015,0.154203 -10.143898,0.04464 z"
       id="path2658"
       transform="matrix(0.26458333,0,0,0.26458333,105.413,161.247)" />
    <text
       xml:space="preserve"
       style="font-style:normal;font-weight:normal;font-size:10.5833px;line-height:1.25;font-family:sans-serif;fill:#ffffff;fill-opacity:1;stroke:none;stroke-width:0.264583"
       x="129.52539"
       y="176.99529"
       id="text5214"><tspan
         id="tspan5212"
         style="stroke-width:0.264583;fill:#ffffff"
         x="129.52539"
         y="176.99529">Etitulacin</tspan></text>
  </g>
</svg>
