<?xml version="1.0" encoding="UTF-8" standalone="no"?>
<!-- Generator: Adobe Illustrator 19.0.0, SVG Export Plug-In . SVG Version: 6.00 Build 0)  -->

<svg
   version="1.1"
   id="Capa_1"
   x="0px"
   y="0px"
   width="120"
   height="62.200001"
   viewBox="0 0 120 62.2"
   xml:space="preserve"
   sodipodi:docname="logo-tecnm_2.svg"
   inkscape:version="1.1.1 (3bf5ae0d25, 2021-09-20)"
   xmlns:inkscape="http://www.inkscape.org/namespaces/inkscape"
   xmlns:sodipodi="http://sodipodi.sourceforge.net/DTD/sodipodi-0.dtd"
   xmlns="http://www.w3.org/2000/svg"
   xmlns:svg="http://www.w3.org/2000/svg"><defs
   id="defs37" /><sodipodi:namedview
   id="namedview35"
   pagecolor="#ffffff"
   bordercolor="#666666"
   borderopacity="1.0"
   inkscape:pageshadow="2"
   inkscape:pageopacity="0.0"
   inkscape:pagecheckerboard="0"
   showgrid="false"
   fit-margin-top="0"
   fit-margin-left="0"
   fit-margin-right="0"
   fit-margin-bottom="0"
   inkscape:zoom="6.026654"
   inkscape:cx="50.857408"
   inkscape:cy="35.425959"
   inkscape:window-width="1920"
   inkscape:window-height="1011"
   inkscape:window-x="0"
   inkscape:window-y="0"
   inkscape:window-maximized="1"
   inkscape:current-layer="Capa_1"
   height="62.2px" />
<style
   type="text/css"
   id="style2">
	.st0{fill-rule:evenodd;clip-rule:evenodd;fill:#1F3465;}
</style>
<g
   id="g32"
   transform="translate(-18.1,-21.1)">
	<g
   id="g22">
		<g
   id="g20">
			<g
   id="g8">
				<g
   id="g6">
					<path
   class="st0"
   d="m 22.6,26.3 c -0.9,0.2 -3.1,0.9 -3.9,1.3 v 4.7 c 0,1.3 -0.1,1 1.3,1.1 7.6,0.2 11.6,1.3 17.3,4.8 -0.1,-1.4 -0.6,-2.8 -1.2,-4 -3.8,-2.8 -7.4,-4.1 -12.1,-4.5 13.3,-3.2 25.2,9.6 20.8,22.7 -1.1,-0.3 -3.3,-1.1 -5.3,0.6 1,2.7 0.2,7 -3.5,6.7 0.1,1.3 -0.5,3 -2.4,4.3 -2.6,1.6 -6.6,2.1 -8.5,0.9 -2.5,0.4 -4.3,-0.3 -6.4,-1.4 v 2.2 c 1.2,0.8 2.5,1.2 3.8,1.5 l 1,4.3 c 0.2,0.5 0.6,0.7 1.3,0.7 h 6.6 c 0.6,0 0.9,-0.3 1.2,-0.7 L 33.5,67 c 0.9,-0.2 1.7,-0.5 2.6,-0.9 l 3.4,3 c 0.4,0.2 0.9,0.2 1.4,-0.2 l 5,-3.7 c 0.4,-0.3 0.6,-0.7 0.5,-1.3 l -1.9,-4.1 c 0.6,-0.7 1.1,-1.4 1.6,-2.2 l 4.5,0.4 c 0.5,0 0.8,-0.3 1,-0.9 l 1.9,-5.9 c 0.2,-0.5 0.1,-1 -0.3,-1.3 l -3.9,-2.2 c 0.1,-0.9 0,-1.8 0,-2.7 l 3.9,-2.3 c 0.4,-0.2 0.5,-0.7 0.2,-1.4 l -2,-5.9 c -0.1,-0.6 -0.5,-0.8 -1,-0.9 L 45.9,35 c -0.5,-0.8 -1,-1.5 -1.6,-2.2 L 46,29 c 0.1,-0.5 0,-0.9 -0.6,-1.3 l -5,-3.6 C 39.9,23.8 39.5,23.7 39,24 l -3.3,3 C 34.9,26.7 34,26.4 33.1,26.2 l -1,-4.4 c -0.2,-0.5 -0.6,-0.7 -1.2,-0.7 h -6.2 c -0.7,0 -1.1,0.3 -1.2,0.7 z m 7.2,18.9 h 0.6 c 0.1,0 0.1,0 0.1,0.1 v 0.2 c 0,0.1 0,0.1 -0.1,0.1 h -0.6 c -0.1,0 -0.1,0 -0.1,-0.1 v -0.2 c 0,0 0.1,-0.1 0.1,-0.1 z m 1.5,-9.4 c 0.9,0.3 1.5,1.2 1.3,2.2 -0.3,0.9 -1.2,1.5 -2.2,1.3 -0.9,-0.3 -1.5,-1.2 -1.3,-2.2 0.3,-1 1.3,-1.5 2.2,-1.3 z m 0.4,0.7 c 0.3,0.1 0.5,0.4 0.4,0.6 -0.1,0.3 -0.4,0.5 -0.7,0.4 -0.3,-0.1 -0.5,-0.4 -0.4,-0.6 0.1,-0.3 0.4,-0.4 0.7,-0.4 z m -1.6,7.7 c 0.7,0 1.3,0.6 1.3,1.3 0,0.7 -0.6,1.3 -1.3,1.3 -0.7,0 -1.3,-0.6 -1.3,-1.3 0,-0.8 0.6,-1.3 1.3,-1.3 z m 0,0.6 c 0.4,0 0.6,0.3 0.6,0.6 0,0.4 -0.3,0.6 -0.6,0.6 -0.4,0 -0.7,-0.3 -0.7,-0.6 0.1,-0.3 0.4,-0.6 0.7,-0.6 z M 33.5,37 c 1.3,0.5 2.6,1.1 3.8,1.8 0,0.3 0,0.6 -0.1,0.8 -0.1,0.7 -0.3,1.4 -0.5,2 -1.9,-0.8 -5.1,-0.9 -7.1,-0.4 -1.4,-0.7 -2.2,-2.3 -1.9,-3.9 0,0 0.3,0.1 0.5,0.1 0.1,1.4 1.2,2.5 2.7,2.5 1.5,0 2.7,-1.2 2.7,-2.6 -0.1,0 -0.1,-0.1 -0.1,-0.3 z M 32,45.4 c 0,-1.2 -0.9,-1.8 -2,-2 -1.1,-0.2 -2.5,-0.3 -3.3,-0.2 2.4,-1.9 7.2,-2 9.8,-0.9 -2,0 -3.9,1.2 -4.5,3.1 z M 18.8,35.1 c -0.2,0 -0.3,-1.1 0,-1.1 3.6,0.1 6.7,0.3 10.2,1.4 -0.4,0.4 -0.7,0.9 -0.9,1.4 -3,-1 -6,-1.4 -9.3,-1.7 z m 0.1,1.9 c -0.3,0 -0.3,-1.4 0,-1.4 2.8,0.4 5.5,0.7 8.3,1.5 -0.1,0.6 -0.1,1.1 0,1.7 C 24.4,38 21.7,37.5 18.9,37 Z m 0,2.5 c -0.2,-0.1 -0.4,-1.8 0.1,-1.7 2.8,0.5 5.6,0.9 8.4,1.7 0.4,1 0.8,1.5 1.4,2.1 -1.8,0.6 -7.5,-1.4 -9.9,-2.1 z m 0,4 c -0.2,0 -0.7,-3.4 0.2,-3.2 2.7,0.8 5.5,1.6 8.2,1.9 -0.5,0.3 -1,0.6 -1.3,1 -0.9,0 -1.9,0 -2.8,0 -1.4,0.1 -2.9,0.2 -4.3,0.3 z m 0.1,2.4 c -0.5,0 -0.5,-1.8 0,-1.8 3.5,-0.4 6.7,-0.5 10.2,-0.2 -1,0.6 -1.2,2 -0.4,2.9 -3.2,-0.8 -6.6,-1 -9.8,-0.9 z m -0.3,3.5 v -2.5 c 0,-0.2 0.1,-0.3 0.3,-0.4 1.8,-0.2 3.9,-0.1 5.7,0.1 h 0.1 c -1.8,0.8 -4.5,2.4 -5.7,3.1 -0.1,0.1 -0.3,0.1 -0.4,0 0,0 0,-0.2 0,-0.3 z m 13.8,0.3 c -0.8,-0.6 -1.5,-1.6 -1.8,-2.5 0.5,-0.2 0.8,-0.5 1.1,-0.9 -0.1,1 0.1,2.1 0.7,3 0.1,0.1 0.1,0.2 0.2,0.3 0.3,0.2 0.1,0.3 -0.2,0.1 z m -8,13.8 c -2,0.1 -5.6,-0.1 -6.4,-2.4 2.3,-5.1 5.1,-9.9 8.6,-14.2 0.3,0 0.5,0.1 0.8,0.1 -2.3,5.4 -2.9,10.7 -3,16.5 z m -5.4,-6.8 c -0.7,0.4 -1.5,-4.9 0,-6 1.6,-1.1 3.2,-2.1 5,-3.2 l 1.2,-0.7 c 0.2,0 0.5,0.1 0.8,0.1 -0.2,0.2 -0.6,0.7 -0.7,0.8 -2.3,2.3 -4.8,6.5 -6.3,9 z M 38.9,41.8 c 0.5,0.2 -0.1,1.9 -0.5,1.8 -0.4,-0.1 -0.8,0 -1.1,0.2 0.3,0.6 0.9,1.9 1.1,2.8 0.1,0.3 0.2,1.1 -0.2,1.4 -0.3,0.2 -0.7,0.1 -1.3,0.2 l -0.1,0.6 c 0,0.1 0.2,0.1 0.2,0.2 0,0.1 -0.2,0.4 -0.6,0.4 0.1,0.2 0.2,0.3 0.2,0.6 0,0.2 -0.4,0.2 -0.7,0.4 -0.2,0.1 -0.1,0.2 -0.3,0.2 0,0 -0.1,0 -0.1,0 -3.5,-0.6 -3.7,-5.1 -1,-6.8 l 0.8,0.3 c 0.2,0.1 0.2,0.1 0,0.2 -0.1,0 -0.2,0.1 -0.3,0.1 -0.3,0.1 -0.3,0.1 0,0.2 0.3,0.1 0.7,0.2 1,0.3 0.1,0 0.1,0.1 0.2,0 0.1,-0.1 0.1,-0.3 0,-0.5 0.2,0 0.3,0 0.5,-0.1 0.3,-0.2 0.2,-0.2 -0.1,-0.2 -0.2,0 -0.4,0.1 -0.5,0 L 35,43.8 c 0.4,-0.4 1.3,-0.8 2.3,-0.7 l 0.4,-1.6 z m -2.7,9.7 c 1.1,0.9 2.7,0.2 1.8,0.9 -2.9,2.2 -7.2,-1.6 -7.8,-4.9 0.1,0 0.3,0 0.4,0 0.6,1.3 0.8,1.8 2,2.8 0.7,0.5 1.3,0.8 2.3,0.8 0.8,0.1 0.6,-0.2 1.3,0.4 z m 7.2,-11.4 c 0.7,1.8 0.6,4.3 -1,5.3 -0.6,0.3 -0.8,0 -0.4,-0.5 0.3,-0.3 0.3,-1 0.2,-1.4 C 41.8,42 39,41 37.7,40.6 c 0.5,-1.9 0.2,-3.8 -0.5,-5.6 2.6,0.9 5.1,2.4 6.2,5.1 z m -17.1,24 c -0.4,-4.5 -0.2,-12.8 1.8,-16.9 0.4,0.1 0.9,0.2 1.3,0.3 0,0.1 0,0.6 0,0.7 -0.4,6.1 2,10 5.6,11.8 -0.4,3.8 -5.5,4.7 -8.7,4.1 z M 38.8,53.4 c 0.8,1.4 -0.4,5.2 -2.2,5.5 -4.6,-1 -7.3,-7.1 -6.9,-11.4 0.1,0 0.1,0 0.2,0 0,0.2 0.1,0.5 0.1,0.7 0.9,3.3 5.1,7 8.8,5.2 z"
   id="path4" />
				</g>
			</g>
			<g
   id="g18">
				<path
   class="st0"
   d="M 74.3,45.1 V 40.3 H 72.8 V 39 h 4.1 v 1.3 h -1.5 v 4.8 z m 40.4,-4 v -1.7 c -1,-0.9 -2.3,-0.8 -3.2,0.4 -0.5,0.6 -0.7,1.4 -0.7,2.3 0,1 0.3,1.9 0.9,2.6 0.9,0.9 2,0.9 2.9,0.1 v -1.5 c -0.6,0.7 -1.7,1.2 -2.4,0.2 -0.2,-0.3 -0.4,-0.8 -0.4,-1.4 0,-0.6 0.1,-1 0.4,-1.4 0.6,-0.8 1.4,-0.6 2,0 z m -13.6,-2.7 0.4,-0.5 -0.3,-0.4 -0.7,0.9 z M 85,41.1 v -1.7 c -1,-0.9 -2.3,-0.8 -3.2,0.4 -0.5,0.6 -0.7,1.4 -0.7,2.3 0,1 0.3,1.9 0.9,2.6 0.9,0.9 2,0.9 2.9,0.1 v -1.5 c -0.6,0.7 -1.7,1.2 -2.4,0.2 -0.2,-0.3 -0.4,-0.8 -0.4,-1.4 0,-0.6 0.1,-1 0.4,-1.4 0.6,-0.8 1.4,-0.6 2,0 z m 23.1,1.1 v -0.5 h -2 V 43 h 0.9 v 0.9 c -0.2,0.1 -0.4,0.1 -0.6,0.1 -0.9,0 -1.4,-0.9 -1.4,-2 0,-0.5 0.1,-1 0.4,-1.4 0.4,-0.6 1.2,-0.7 1.7,-0.3 0.2,0.1 0.4,0.3 0.7,0.6 l 0.1,-1.5 c -0.2,-0.2 -0.5,-0.3 -0.7,-0.4 -0.9,-0.4 -1.9,-0.1 -2.6,0.8 -0.5,0.6 -0.7,1.4 -0.7,2.3 0,1.9 1,3.2 2.5,3.2 0.6,0 1.2,-0.3 1.8,-0.6 v -2.5 z m 1,2.9 h 1.1 V 39 h -1.1 z M 95.7,39.5 v 5.6 h 2.9 V 43.8 H 96.8 V 39 h -1.1 z m -10,0 v 5.6 h 1 v -3.3 l 2.7,3.3 h 0.3 V 39 h -1 v 3.4 L 86,39 h -0.3 z m -8.1,0 v 5.6 h 2.9 v -1.3 h -1.8 v -1.2 h 1.1 v -1.2 h -1.1 v -1.1 h 1.8 V 39 h -2.9 z m 12.8,2.6 c 0,-1.8 1,-3.2 2.4,-3.2 1.4,0 2.4,1.5 2.4,3.2 0,1.8 -1,3.2 -2.4,3.2 -1.4,0 -2.4,-1.5 -2.4,-3.2 z m 1.1,0 c 0,0.9 0.5,1.9 1.2,1.9 0.8,0 1.2,-0.9 1.2,-1.9 0,-1 -0.4,-1.9 -1.2,-1.9 -0.7,0 -1.2,0.9 -1.2,1.9 z m 7.1,0 c 0,-0.5 0.1,-0.9 0.2,-1.3 0.4,-1.2 1.2,-2 2.2,-2 1.4,0 2.4,1.5 2.4,3.2 0,1.8 -1,3.2 -2.4,3.2 -1.4,0.1 -2.4,-1.4 -2.4,-3.1 z m 1.1,0 c 0,0.9 0.5,1.9 1.2,1.9 0.8,0 1.2,-0.9 1.2,-1.9 0,-1 -0.4,-1.9 -1.2,-1.9 -0.8,0 -1.2,0.9 -1.2,1.9 z m 17.7,-3.3 c 1,0 1.9,0.8 2.2,2 0.1,0.4 0.2,0.8 0.2,1.3 0,1.8 -1,3.2 -2.4,3.2 -1.4,0 -2.4,-1.5 -2.4,-3.2 0.1,-1.8 1,-3.3 2.4,-3.3 z m -1.2,3.3 c 0,0.9 0.5,1.9 1.2,1.9 0.8,0 1.2,-0.9 1.2,-1.9 0,-1 -0.4,-1.9 -1.2,-1.9 -0.7,0 -1.2,0.9 -1.2,1.9 z"
   id="path10" />
				<g
   id="g16">
					<path
   class="st0"
   d="m 128.4,50.1 c -0.6,-0.6 -1.5,-0.8 -2.1,0 -0.5,0.7 -0.5,2 0,2.7 0.7,0.9 1.8,0.5 2.5,-0.2 v 1.5 c -0.9,0.8 -2.2,0.8 -3.1,-0.1 -1.2,-1.2 -1.3,-3.5 -0.2,-4.9 0.9,-1.1 2.3,-1.2 3.3,-0.4 v 1.7 z m -12.8,-2 0.2,-0.3 -0.3,-0.4 -0.5,0.6 h 0.6 z M 123,49 v 5.6 h 1.2 v -6.1 c -0.5,0 -0.7,0 -1.2,0 z m -3.9,2.4 -1.8,3.1 h 1.3 l 1.1,-2.1 1.2,2.1 h 1.4 l -1.9,-3.3 1.6,-2.8 h -1.3 l -1,1.7 -1,-1.7 c -0.5,0 -0.6,0 -1.1,0 z M 113.9,49 v 5.6 h 3.1 v -1.3 h -2 v -1.2 h 1.2 V 50.9 H 115 v -1.1 h 1.9 v -1.2 c -1.1,0 -1.9,0 -3,0 z m -5.3,-0.5 -1,6.1 h 1 l 0.4,-2.8 1.3,2.8 h 0.3 l 1.2,-2.8 0.4,2.8 h 1.1 l -1,-6.1 h -0.2 l -1.7,3.7 z m 21.8,3 c 0,0.9 0.5,1.9 1.3,1.9 0.8,0 1.3,-0.9 1.3,-1.9 0,-0.9 -0.5,-1.9 -1.3,-1.9 -0.8,0.1 -1.3,1 -1.3,1.9 z m -1.2,0 c 0,-1.7 1,-3.2 2.5,-3.2 1.5,0 2.5,1.5 2.5,3.2 0,1.8 -1.1,3.2 -2.5,3.2 -1.5,0.1 -2.5,-1.4 -2.5,-3.2 z"
   id="path12" />
					<path
   class="st0"
   d="m 96.7,48.9 v 5.5 H 98 c 0.6,0 1.2,-0.1 1.7,-0.5 0.8,-0.6 1.2,-1.4 1.2,-2.6 0,-0.9 -0.3,-1.7 -0.8,-2.2 -0.5,-0.5 -1.2,-0.8 -2.1,-0.8 -0.6,0 -0.7,0 -1.3,0 z m 4.9,0 v 5.5 h 3 v -1.3 h -1.9 V 52 h 1.2 v -1.2 h -1.2 v -1.1 h 1.9 v -1.2 c -1.1,0 -1.9,0 -3,0 z m -11.5,5.6 h 3.1 v -1.3 h -1.9 v -4.7 h -1.2 z m -5.4,0 h 1.2 l 0.3,-0.9 h 2 l 0.3,0.9 h 1.2 l -2.4,-6 h -0.2 z m 1.8,-2 0.7,-1.9 0.6,1.9 z m -6.4,-3.6 v 5.5 h 1.1 v -3.3 l 2.8,3.3 h 0.3 v -6 h -1.1 v 3.3 L 80.3,48.4 H 80 Z m -7.3,0 v 5.5 H 74 v -6 h -1.2 z m -1.3,1.2 c -0.6,-0.6 -1.5,-0.8 -2.1,0 -0.3,0.4 -0.4,0.8 -0.4,1.4 0,0.6 0.1,1 0.4,1.3 0.7,0.9 1.8,0.5 2.5,-0.2 v 1.5 c -0.9,0.8 -2.2,0.8 -3.1,-0.1 -0.6,-0.6 -1,-1.5 -1,-2.6 0,-0.9 0.2,-1.7 0.7,-2.3 0.9,-1.1 2.3,-1.2 3.3,-0.4 v 1.7 z m -8.4,4.4 h 1.2 l 0.3,-0.9 h 2 l 0.3,0.9 h 1.2 l -2.4,-6 h -0.2 z m 1.8,-2 0.7,-1.9 0.6,1.9 z m -6.4,2 v -6 h 0.3 l 2.9,3.3 v -3.3 h 1.1 v 6 h -0.3 l -2.8,-3.3 v 3.3 z m 16.1,-3.1 c 0,-1.8 1.1,-3.2 2.5,-3.2 1.5,0 2.5,1.5 2.5,3.2 0,1.7 -1,3.2 -2.5,3.2 -1.4,0.1 -2.5,-1.4 -2.5,-3.2 z m 1.2,0 c 0,0.9 0.5,1.8 1.3,1.8 0.8,0 1.3,-0.9 1.3,-1.8 0,-0.9 -0.5,-1.9 -1.3,-1.9 -0.8,0.1 -1.3,1 -1.3,1.9 z m 22,1.8 v -3.4 h 0.3 c 0.5,0 0.9,0.2 1.2,0.5 0.3,0.3 0.4,0.7 0.4,1.3 0,0.5 -0.1,1 -0.4,1.3 -0.3,0.3 -0.7,0.5 -1.2,0.5 h -0.3 z"
   id="path14" />
				</g>
			</g>
		</g>
	</g>
	<g
   id="g30">
		<g
   id="g28">
			<path
   class="st0"
   d="m 136.5,51.6 c 0.9,0 1.6,0.7 1.6,1.6 0,0.9 -0.7,1.6 -1.6,1.6 -0.9,0 -1.6,-0.7 -1.6,-1.6 0,-0.9 0.7,-1.6 1.6,-1.6 z m 0,0.2 c -0.7,0 -1.4,0.6 -1.4,1.4 0,0.8 0.6,1.4 1.3,1.4 0.8,0 1.4,-0.6 1.4,-1.4 0.1,-0.8 -0.5,-1.4 -1.3,-1.4 z"
   id="path24" />
			<path
   class="st0"
   d="m 136.2,53.3 c 0,0.2 0,0.5 0,0.7 -0.1,0 -0.2,0 -0.3,0 0,-0.6 0,-1.1 0,-1.7 0,0 0,0 0,0 0.3,0 0.6,0 1,0 0.3,0.1 0.5,0.5 0.3,0.7 -0.1,0.1 -0.1,0.1 -0.3,0.2 0,0 0,0 0.1,0 0.2,0.1 0.3,0.2 0.3,0.4 0,0.1 0,0.2 0,0.4 -0.1,0 -0.2,0 -0.3,0 0,-0.1 0,-0.1 0,-0.2 0,-0.1 0,-0.2 0,-0.3 0,-0.2 -0.1,-0.2 -0.3,-0.3 -0.2,0.1 -0.4,0.1 -0.5,0.1 z m 0,-0.2 c 0.1,0 0.2,0 0.3,0 0.1,0 0.2,0 0.3,0 0.1,0 0.2,-0.1 0.2,-0.3 0,-0.2 -0.1,-0.2 -0.2,-0.3 -0.2,-0.1 -0.4,0 -0.6,0 0,0.2 0,0.4 0,0.6 z"
   id="path26" />
		</g>
	</g>
</g>
</svg>
