<?xml version="1.0" encoding="UTF-8"?>
<!-- Created with Inkscape (http://www.inkscape.org/) -->
<svg width="313.35" height="90" version="1.1" viewBox="0 0 82.907 23.813" xmlns="http://www.w3.org/2000/svg">
 <defs>
  <clipPath id="clipPath1487">
   <circle cx="117.24" cy="173.07" r="11.823" fill="#fff" opacity=".71" stroke-width=".24858"/>
  </clipPath>
 </defs>
 <g transform="translate(-105.93 -161.22)">
  <circle cx="117.84" cy="173.12" r="11.906" fill="#fff" opacity=".71" stroke-width=".25034"/>
  <path transform="matrix(1.0071 0 0 1.0071 -.22559 -1.1697)" d="m119.07 183.84c-0.57049-0.13378-2.0662-0.76684-3.3238-1.4068-2.9991-1.5262-5.0148-2.1026-6.7295-1.9245l-1.3449 0.13969 0.92131-0.39847c1.6346-0.70697 4.1719-0.36558 7.8787 1.0601 3.5005 1.3463 5.8163 1.7549 7.2473 1.2786l0.88595-0.29486-0.77305 0.6368c-0.71772 0.59122-2.5789 1.2408-3.379 1.1793-0.19022-0.0146-0.81262-0.13604-1.3831-0.26981zm-4.1221-6.6436-1.1906-0.5514 1.4073-0.22352c0.77401-0.12294 1.6471-0.35185 1.9402-0.50871 0.48916-0.26179 0.49852-0.32317 0.11406-0.74799-0.23036-0.25454-0.41883-0.55039-0.41883-0.65744 0-0.31251-2.1909-2.7836-2.8637-3.23-0.44556-0.2956-1.5744-0.44292-4.101-0.53517-1.9174-0.07-3.5904-0.23111-3.7176-0.35799-0.46601-0.46475 2.5904-1.1401 5.6553-1.2496 4.2657-0.15239 5.1768 0.14731 6.2177 2.0451 1.234 2.25 2.0834 3.4248 2.4786 3.4284 0.19907 2e-3 0.78608-0.36912 1.3045-0.82426 2.0928-1.8375 5.6095-2.9072 6.4052-1.9484 0.31517 0.37975 0.22373 2.1093-0.13023 2.4633-0.0831 0.0831-0.83228-0.19705-1.665-0.62245-0.83268-0.42539-1.6068-0.81685-1.7203-0.86991-0.208-0.0973-2.0426 1.7659-2.0426 2.0743 0 0.0913 0.56554 0.45022 1.2568 0.79761l1.2568 0.63162-1.1615 0.20156c-0.63884 0.11085-1.3826 0.40163-1.6528 0.64617-0.38338 0.34695-1.1162 0.4606-3.3364 0.51736-2.4249 0.062-3.0209-9e-3 -4.0357-0.47866zm-7.0226-11.563c0.25317-0.40963 1.9317-1.2322 3.2254-1.5805 0.83138-0.22386 2.0398-0.20442 5.0256 0.0809 4.1297 0.39459 6.237 0.2449 7.4367-0.52825 0.32743-0.211 0.59532-0.28257 0.59532-0.15906 0 0.339-1.0806 1.2576-2.0648 1.7552-1.4766 0.74658-3.1258 0.78551-6.2726 0.14806-3.2874-0.66592-5.805-0.62583-7.2381 0.11527-0.48779 0.25225-0.80619 0.32804-0.70754 0.16842z" clip-path="url(#clipPath1487)" fill="#06386b" stroke-width=".26458"/>
  <g fill="#fff">
   <g stroke-width=".047994">
    <path d="m122.15 182.83c-1.571-0.23821-2.6801-0.55091-5.0394-1.4207-1.906-0.70272-3.1019-1.0543-4.3915-1.291-0.47563-0.0873-0.75144-0.10574-1.5838-0.10579-1.129-4e-5 -1.3835 0.0447-2.1483 0.37762l-0.39534 0.17212-0.13645-0.1583c-0.24708-0.28666-0.78688-1.1184-1.0797-1.6636-0.70648-1.3154-1.1305-2.6277-1.328-4.11-0.091-0.68336-0.10365-2.0837-0.0252-2.8076 0.21748-2.0084 1.0494-4.1296 2.2604-5.7633 0.19101-0.25771 0.27205-0.32728 0.43957-0.37741 0.11295-0.0338 0.32633-0.12248 0.47418-0.19708 0.73416-0.37036 1.4831-0.52078 2.7788-0.55805 1.43-0.0411 2.4761 0.0649 4.5594 0.46214 1.857 0.35407 2.8543 0.46226 3.8395 0.41649 0.97865-0.0455 1.6659-0.21302 2.4133-0.58836 0.77673-0.39006 1.748-1.147 1.9968-1.5562l0.0821-0.13496 0.47758 0.39604c2.592 2.1495 4.0873 5.0448 4.3421 8.4075 0.11796 1.5568-0.14649 3.4118-0.69793 4.8957-0.66545 1.7906-1.861 3.5451-3.2356 4.7483-0.41363 0.36205-0.46933 0.39437-0.97673 0.56657-0.76478 0.25956-1.1389 0.32239-1.8742 0.31479-0.34744-4e-3 -0.68569-0.0147-0.75168-0.0248zm-2.3921-5.0562c1.3999-0.0468 2.0821-0.10071 2.5121-0.19847 0.25673-0.0584 0.6691-0.24717 0.72008-0.32967 0.0578-0.0935 0.69034-0.38252 1.0898-0.49793 0.21879-0.0632 0.69476-0.16381 1.0577-0.22356 0.36295-0.0597 0.65962-0.12158 0.65924-0.13739-3.7e-4 -0.0158-0.43772-0.25079-0.97188-0.5222-1.0384-0.52759-1.4893-0.80387-1.5127-0.92684-8e-3 -0.0421 0.0879-0.21276 0.21308-0.37933 0.27563-0.36666 1.2637-1.3643 1.5346-1.5495l0.19536-0.13355 1.2968 0.6418c0.71326 0.35299 1.4861 0.70338 1.7175 0.77864l0.42067 0.13684 0.0882-0.10901c0.2809-0.3469 0.38441-1.8886 0.15691-2.3373-0.40809-0.80478-2.4053-0.58386-4.5472 0.50297-0.70667 0.35859-1.211 0.69324-2.0134 1.3359-0.74556 0.59715-1.1753 0.85388-1.3543 0.80897-0.3567-0.0895-1.2794-1.3882-2.301-3.2388-0.86095-1.5595-1.4792-2.0058-3.0728-2.2183-0.54986-0.0733-3.095-0.0717-4.1275 3e-3 -2.7946 0.20127-5.1133 0.75365-4.95 1.1792 0.0155 0.0404 0.0839 0.0945 0.15197 0.1204 0.29965 0.11394 1.8528 0.24646 3.9341 0.33566 2.6348 0.11294 3.4719 0.24619 3.9684 0.63165 0.67329 0.52273 2.7268 2.8426 2.7268 3.0805 0 0.10687 0.20523 0.43953 0.46239 0.74948 0.14164 0.17071 0.25753 0.33474 0.25753 0.36451 0 0.16197-0.51881 0.41515-1.2226 0.59662-0.30277 0.078-0.97763 0.21066-1.4997 0.29465-0.52207 0.084-0.96638 0.16757-0.98736 0.18571-0.0408 0.0354 1.2993 0.67174 1.7179 0.81578 0.40201 0.13832 0.77631 0.20389 1.3678 0.23963 0.82426 0.0498 0.8295 0.0498 2.3114 3e-4z" opacity=".71"/>
    <path d="m121.27 182.65c-1.2471-0.25686-2.1403-0.52777-4.1275-1.2518-1.805-0.65765-3.1263-1.0511-4.2955-1.2792-0.46808-0.0913-0.71599-0.10804-1.6318-0.11019-1.2112-3e-3 -1.3424 0.0171-2.0972 0.31768-0.59852 0.23839-0.52294 0.27867-1.0962-0.58419-1.0525-1.5841-1.6823-3.2299-1.9467-5.0874-0.0905-0.63618-0.0756-2.6005 0.0246-3.236 0.26427-1.676 0.9753-3.5241 1.8664-4.851 0.48005-0.71486 0.52982-0.76196 1.0415-0.98552 1.2524-0.54717 1.5391-0.59672 3.4556-0.59711 1.7011-3.5e-4 1.7057 1.2e-4 4.105 0.42996 1.7679 0.31672 2.535 0.40871 3.4061 0.40842 1.4976-5.1e-4 2.4235-0.27354 3.6036-1.0627 0.48686-0.32555 1.152-0.9172 1.2574-1.1183 0.0455-0.0869 0.0727-0.0735 0.37767 0.18576 1.2913 1.0977 2.06 1.9796 2.8201 3.2355 1.0623 1.7554 1.6618 3.9344 1.6592 6.0309-3e-3 2.2749-0.59996 4.3813-1.7773 6.2692-0.6166 0.98875-1.5642 2.1028-2.302 2.7065-0.25364 0.20751-0.43508 0.30774-0.7806 0.43123-0.71629 0.25602-1.0796 0.31254-1.9884 0.30928-0.71741-3e-3 -0.89025-0.0202-1.5738-0.16106zm-1.0079-4.877c1.8024-0.083 2.2552-0.16836 2.7748-0.52321 0.42028-0.28702 0.97204-0.4788 1.9167-0.66619 0.46854-0.093 0.8519-0.18367 0.8519-0.20163 0-0.0179-0.24297-0.15809-0.53993-0.31144-1.1634-0.60075-1.7662-0.94283-1.8596-1.0554-0.0534-0.0643-0.0515-0.10245 0.0107-0.2331 0.16607-0.34824 1.6581-1.8549 1.8369-1.8549 0.0316 0 0.58441 0.2565 1.2285 0.57 1.0236 0.49821 1.7986 0.83852 2.1367 0.93827 0.23243 0.0686 0.40161-0.46979 0.43625-1.3883 0.0368-0.975-0.0732-1.2639-0.55128-1.4484-0.27781-0.1072-1.2343-0.12052-1.6424-0.0228-0.92888 0.22223-1.5889 0.46287-2.4424 0.89054-0.66259 0.33198-1.084 0.60271-1.8294 1.1754-0.82214 0.63157-0.90386 0.69078-1.1557 0.83714-0.40331 0.23438-0.52823 0.17462-1.0522-0.50329-0.3951-0.51124-0.87448-1.2621-1.512-2.3684-0.25861-0.44874-0.52549-0.89148-0.59309-0.98387-0.68138-0.93134-1.1819-1.2234-2.4778-1.4459-0.44399-0.0762-3.6674-0.0752-4.5354 9.7e-4 -2.6771 0.23634-4.7034 0.72523-4.7034 1.1348 0 0.25488 0.88533 0.36544 4.2235 0.52745 2.2538 0.10939 3.0934 0.22192 3.612 0.48412 0.2989 0.15113 1.1777 1.0219 2.0057 1.9873 0.73535 0.85741 0.83337 0.98832 0.97063 1.2965 0.0642 0.14397 0.23859 0.42212 0.38768 0.6181 0.14909 0.19599 0.27107 0.38162 0.27107 0.41251 0 0.0887-0.14956 0.20156-0.4338 0.32727-0.4615 0.2041-1.1143 0.35806-2.5898 0.61074-0.32996 0.0565-0.61681 0.11851-0.63746 0.13778-0.059 0.0551 1.4626 0.76122 1.9249 0.89323 0.72826 0.20795 1.9345 0.25788 3.9679 0.16424z" opacity=".71"/>
    <path d="m122.11 182.78c-0.2735-0.0288-1.1944-0.20539-1.6078-0.30832-0.69557-0.17318-1.6617-0.48023-2.9276-0.93045-2.1547-0.76631-2.7715-0.96449-3.7915-1.2184-1.1679-0.29069-1.3528-0.31309-2.5917-0.31407-1.2453-9.7e-4 -1.2726 3e-3 -2.0301 0.29168-0.2902 0.11062-0.48713 0.15986-0.56314 0.14078-0.1543-0.0387-0.86836-1.1135-1.2876-1.9382-0.56141-1.1041-0.87818-2.0125-1.1218-3.2168-0.12844-0.63497-0.13271-0.70514-0.13189-2.168 7.7e-4 -1.3799 0.0104-1.5592 0.11012-2.0553 0.32047-1.594 0.98862-3.2535 1.8101-4.4959 0.44384-0.67126 0.56857-0.77771 1.2465-1.0639 1.0534-0.44466 1.1534-0.46067 3.0236-0.48386 1.8472-0.0229 1.991-0.0105 4.0075 0.3472 1.9361 0.3434 2.4635 0.41282 3.3596 0.44215 1.3165 0.0431 2.1527-0.0935 3.0177-0.49322 0.55456-0.25622 1.4032-0.84583 1.8629-1.2942 0.22706-0.2215 0.43666-0.38906 0.46579-0.37235 0.17266 0.0991 0.90235 0.76065 1.4006 1.2699 1.7556 1.7942 2.8145 3.9706 3.2186 6.6158 0.10312 0.67492 0.11537 2.3406 0.0223 3.0236-0.31423 2.3043-1.1412 4.2388-2.577 6.028-0.48988 0.61049-1.2679 1.3947-1.6039 1.6167-0.33579 0.22187-1.153 0.49441-1.6782 0.55967-0.38227 0.0475-1.2589 0.0569-1.633 0.0174zm-0.86389-5.0544c0.88137-0.07 1.3026-0.18172 1.8276-0.48475 0.53442-0.30843 1.0088-0.46946 1.9759-0.67071 0.41575-0.0865 0.75591-0.17213 0.75591-0.19025 0-0.0181-0.36176-0.22336-0.80391-0.45611-1.0254-0.53977-1.5776-0.8652-1.6096-0.94851-0.0524-0.13654 0.15381-0.41412 0.80544-1.0843 0.80712-0.83011 0.99249-0.97742 1.1531-0.91634 0.0625 0.0238 0.60625 0.27872 1.2082 0.56652 0.60197 0.28782 1.3287 0.61794 1.615 0.73361l0.52057 0.21032 0.0907-0.11205c0.17351-0.21426 0.28341-0.81249 0.28342-1.5428 2e-5 -0.57603-0.0491-0.80149-0.21864-1.0029-0.20537-0.24408-0.4861-0.31747-1.1966-0.31282-0.51703 4e-3 -0.71026 0.0267-1.1279 0.13578-0.68958 0.18022-1.3024 0.41468-2.0298 0.77651-0.75938 0.37779-1.0336 0.55445-2.1223 1.3672-0.47484 0.35451-0.95678 0.68627-1.071 0.73724-0.20099 0.0897-0.21275 0.0899-0.36796 7e-3 -0.35152-0.18931-0.94391-1.0448-2.2458-3.2431-0.22666-0.38275-0.51047-0.81944-0.63069-0.9704-0.42903-0.53879-0.95962-0.86194-1.7204-1.0478-1.0177-0.24864-4.2479-0.23328-6.3221 0.0301-2.0616 0.26175-3.4556 0.6678-3.4556 1.0066 0 0.24926 0.88955 0.36468 4.0555 0.52625 2.2774 0.11622 3.2016 0.23154 3.706 0.46241 0.48548 0.22224 2.6663 2.5714 3.0008 3.2325 0.0802 0.15838 0.27587 0.47583 0.43495 0.70546 0.33588 0.48486 0.33716 0.47874-0.14654 0.70106-0.40776 0.18743-1.023 0.34184-2.2438 0.5631-0.52793 0.0957-0.97665 0.19006-0.99716 0.20972-0.0482 0.0461 1.271 0.68092 1.7441 0.83918 0.33113 0.11079 0.70955 0.1851 1.2208 0.23978 0.33771 0.0361 3.2401-0.0134 3.9115-0.0668z" opacity=".71"/>
    <path d="m122.11 182.77c-0.84759-0.0824-2.1192-0.40845-3.6858-0.94519-0.73127-0.25054-1.8263-0.62539-2.4334-0.83301-2.1058-0.72008-3.1099-0.9461-4.3915-0.98853-1.1542-0.0382-1.7168 0.0223-2.3242 0.24979-0.67097 0.25135-0.6729 0.25106-0.96949-0.14119-0.94545-1.2504-1.7418-3.0556-2.0831-4.7218-0.26095-1.2741-0.24818-3.4152 0.0277-4.6503 0.31651-1.4169 0.94403-2.9391 1.6832-4.083 0.48327-0.74787 0.70999-0.92367 1.6686-1.2939 0.69287-0.26758 0.96307-0.30368 2.5077-0.33502 1.6896-0.0343 2.1348 2e-3 3.986 0.32483 2.2086 0.38517 2.5709 0.43263 3.5252 0.46174 1.3582 0.0414 2.1523-0.092 3.0493-0.51234 0.52805-0.24745 1.2912-0.77466 1.8041-1.2464 0.23138-0.21279 0.43898-0.38689 0.46135-0.38689 0.13782 0 1.3482 1.1364 1.9096 1.7929 1.4952 1.7484 2.425 3.8456 2.7267 6.15 0.0865 0.66106 0.10104 2.2833 0.0257 2.8797-0.29639 2.347-1.1542 4.349-2.6375 6.1557-0.5092 0.62021-1.2811 1.3828-1.6102 1.5907-0.69434 0.43869-1.9983 0.65288-3.2402 0.53222zm-0.79489-5.0415c0.77458-0.0674 1.2466-0.18611 1.6539-0.41597 0.68213-0.38495 1.0647-0.51598 2.2246-0.76199 0.33656-0.0714 0.61193-0.14503 0.61193-0.16366 0-0.0186-0.45764-0.27987-1.017-0.58053-1.1426-0.61417-1.3827-0.77101-1.3827-0.90299 0-0.0503 0.0896-0.2067 0.19899-0.34766 0.32552-0.41923 1.4518-1.519 1.5915-1.5541 0.10113-0.0253 0.35853 0.0773 1.2443 0.49617 1.381 0.65315 2.0158 0.92519 2.1858 0.93672 0.26762 0.0182 0.44025-0.60691 0.44159-1.5989 7.8e-4 -0.57558-0.0483-0.80125-0.21796-1.0029-0.21014-0.24974-0.48232-0.31772-1.2446-0.31085-0.60274 6e-3 -0.72623 0.0218-1.1994 0.15909-1.4578 0.42291-2.5178 0.97003-3.912 2.0192-0.86024 0.64736-1.23 0.87927-1.4019 0.87927-0.31582 0-0.94601-0.85118-2.2502-3.0393-0.72644-1.2188-1.105-1.6647-1.6631-1.9593-0.73846-0.38975-1.8918-0.52045-4.1495-0.47024-1.5479 0.0344-2.242 0.0855-3.3959 0.25003-2.2113 0.31523-3.4597 0.77607-2.9655 1.0947 0.13142 0.0848 0.50478 0.15069 1.2358 0.21833 0.90223 0.0835 1.0651 0.0945 2.5437 0.17134 2.4887 0.1294 3.3764 0.24099 3.8857 0.48845 0.4597 0.22336 2.2859 2.1465 2.8165 2.966 0.64915 1.0026 0.83139 1.3031 0.83208 1.3722 2e-3 0.14764-0.62586 0.41123-1.4097 0.59231-0.16131 0.0373-0.71444 0.14622-1.2292 0.24211-0.51473 0.0958-0.95273 0.1911-0.97332 0.21156-0.0588 0.0584 1.4442 0.75842 1.9165 0.89262 0.23358 0.0664 0.57587 0.14126 0.76064 0.1664 0.42439 0.0577 3.4431 0.0237 4.2685-0.0482z" opacity=".71"/>
    <path d="m122.11 182.78c-1.0102-0.12583-2.2228-0.45076-4.1035-1.0995-3.1694-1.0933-4.1584-1.3919-5.2314-1.579-0.58414-0.10189-1.9027-0.14582-2.4918-0.083-0.33926 0.0361-0.64518 0.10989-1.0645 0.25651l-0.58842 0.20575-0.12833-0.11951c-0.20314-0.1892-0.80312-1.1199-1.1444-1.7753-0.56151-1.0782-0.95159-2.1939-1.1914-3.4076-0.0993-0.50275-0.10897-0.68451-0.10824-2.0398 8.9e-4 -1.6725 0.0312-1.9326 0.36202-3.1038 0.34424-1.2188 0.92812-2.5188 1.5613-3.4762 0.42363-0.64053 0.59442-0.78545 1.2537-1.0638 1.0068-0.42511 1.1578-0.45004 2.8988-0.47841 1.7669-0.0288 2.1234-7.5e-4 3.8808 0.30525 2.0066 0.3494 2.7665 0.45181 3.5756 0.48188 0.85089 0.0316 1.5867-0.0288 2.1516-0.17681 0.95544-0.25026 1.9639-0.8504 2.8336-1.6863 0.18801-0.18071 0.34619-0.32856 0.3515-0.32856 0.0433 0 0.72016 0.60254 1.1838 1.0538 4.2445 4.1308 4.7694 10.764 1.227 15.504-0.80334 1.0751-1.6605 1.9174-2.2286 2.19-0.5875 0.28189-1.1839 0.40449-2.0633 0.42414-0.42235 0.01-0.8435 8e-3 -0.93589-4e-3zm-0.93588-5.062c0.93519-0.0685 1.2504-0.1484 1.8718-0.47435 0.62083-0.32569 1.0449-0.46966 1.9918-0.67615 0.38275-0.0835 0.7113-0.16589 0.7301-0.18316 0.0188-0.0172-0.40234-0.26649-0.93588-0.55385-1.2354-0.66534-1.426-0.78882-1.426-0.92373 0-0.14832 0.26562-0.48585 0.85717-1.0893 0.69715-0.71116 0.93998-0.90288 1.0765-0.84991 0.0584 0.0226 0.54884 0.25103 1.09 0.50754 1.1236 0.53259 1.6435 0.76348 2.0042 0.88992 0.24907 0.0873 0.25356 0.0872 0.34254-9e-3 0.18444-0.19796 0.26449-0.63549 0.26681-1.4581 2e-3 -0.6403-0.0117-0.79312-0.0808-0.91965-0.19775-0.3614-0.50273-0.4696-1.3088-0.46436-0.89814 6e-3 -1.759 0.24642-2.9901 0.83563-0.77136 0.36918-1.3046 0.70506-2.3004 1.4489-0.74215 0.5544-1.0188 0.7305-1.2288 0.7822-0.12249 0.0301-0.16811 5.6e-4 -0.45712-0.29667-0.37347-0.3841-0.80476-1.0211-1.6859-2.4899-0.34836-0.58073-0.75152-1.2136-0.89592-1.4062-0.44508-0.59399-1.0426-0.95493-1.8873-1.1401-0.86001-0.18855-4.0957-0.18669-5.7604 3e-3 -2.539 0.2898-4.2505 0.81426-3.8208 1.1708 0.17107 0.14197 1.4128 0.27754 3.5569 0.3883 2.811 0.14523 3.6436 0.24816 4.1755 0.51621 0.49199 0.24794 2.5925 2.5131 2.9473 3.1784 0.0777 0.14574 0.27084 0.45647 0.42912 0.6905 0.15939 0.23568 0.27603 0.45622 0.26141 0.49431-0.0448 0.11685-0.57379 0.35109-1.1103 0.49169-0.28149 0.0738-0.95995 0.21698-1.5077 0.31826-0.54774 0.10128-0.99588 0.20141-0.99588 0.22252 0 0.0496 0.60728 0.35442 1.2705 0.63771 0.58983 0.25193 0.97081 0.35221 1.5611 0.41093 0.49367 0.0491 3.0276 0.015 3.9595-0.0533z" opacity=".71"/>
    <path d="m122.11 182.78c-0.99746-0.12565-2.2219-0.45276-4.0469-1.0811-3.2442-1.117-4.3029-1.4352-5.3242-1.6004-0.63694-0.10302-1.8865-0.14212-2.4558-0.0769-0.31894 0.0366-0.67114 0.12113-1.0657 0.25588l-0.58928 0.20126-0.12745-0.11842c-0.19011-0.17667-0.79675-1.114-1.1218-1.7332-0.54326-1.035-0.95147-2.1764-1.1868-3.3184-0.12587-0.61076-0.13074-0.68985-0.13182-2.146-9.6e-4 -1.6808 0.0239-1.908 0.33708-3.0476 0.4919-1.7899 1.6047-3.916 2.2719-4.3407 0.2627-0.16724 0.96411-0.46163 1.3944-0.58524 0.46381-0.13326 1.1784-0.18531 2.544-0.18536 1.4085-5e-5 1.8735 0.0454 3.6565 0.35714 2.4796 0.43358 3.5536 0.53106 4.5918 0.41672 1.4041-0.15464 2.5806-0.74251 3.7806-1.8891l0.29456-0.28145 0.30179 0.25115c2.6497 2.2051 4.1618 5.0912 4.4136 8.4241 0.18173 2.4053-0.39359 4.8178-1.6463 6.9036-0.55851 0.92993-1.4425 2.0135-2.1944 2.6898-0.68392 0.6152-1.4878 0.87974-2.7597 0.90817-0.42235 0.01-0.8435 8e-3 -0.93589-4e-3zm-0.96258-5.0613c0.95005-0.0694 1.2326-0.14153 1.9465-0.49743 0.66017-0.32913 1.067-0.46359 2.0398-0.67409 0.32996-0.0714 0.61477-0.144 0.63289-0.16131 0.0181-0.0173-0.43813-0.28685-1.0139-0.59895-1.2084-0.65505-1.3757-0.77444-1.3316-0.95045 0.0721-0.28715 1.6168-1.8657 1.8257-1.8657 0.062 0 0.6829 0.26722 1.3797 0.59383 1.359 0.63699 1.853 0.846 1.9995 0.846 0.27341 0 0.41445-0.51918 0.41719-1.5358 2e-3 -0.61737-0.0121-0.76973-0.081-0.89565-0.19709-0.36018-0.49833-0.4668-1.3095-0.46349-0.68905 3e-3 -1.3176 0.14163-2.183 0.48213-1.1387 0.44801-1.8353 0.85197-3.1068 1.8016-1.1484 0.85772-1.2503 0.89897-1.5507 0.62758-0.40499-0.36588-0.81538-0.96021-1.834-2.6561-0.94753-1.5775-1.2454-1.9202-1.9565-2.2513-0.59027-0.27478-1.1116-0.36162-2.4706-0.41152-0.86981-0.032-3.0293 0.0351-3.8635 0.11984-2.4236 0.24633-4.3217 0.77226-4.0987 1.1357 0.029 0.0473 0.14266 0.11203 0.25254 0.14384 0.31612 0.0915 1.5221 0.19991 3.3662 0.30256 2.0455 0.11385 2.2721 0.13077 2.9516 0.22046 0.66327 0.0876 0.97508 0.1701 1.2493 0.3308 0.55951 0.32788 2.5912 2.5339 2.9079 3.1574 0.0569 0.11215 0.23017 0.39514 0.3849 0.62886s0.28133 0.46729 0.28133 0.51905c0 0.22475-1.0298 0.5478-2.7477 0.86197-0.46855 0.0857-0.8519 0.1731-0.8519 0.19426 0 0.0493 0.60716 0.3546 1.2503 0.62863 0.59154 0.25205 1.0178 0.36547 1.5792 0.42015 0.48918 0.0477 3.024 0.0136 3.935-0.0529z" opacity=".71"/>
    <path d="m122.03 182.78c-1.2902-0.19659-2.2931-0.48521-5.1834-1.4916-2.8739-1.0007-4.0912-1.2833-5.6153-1.3037-0.82363-0.011-1.316 0.06-2.0025 0.28883l-0.61065 0.20356-0.12624-0.11756c-0.20127-0.18742-0.80245-1.1207-1.1424-1.7734-0.7226-1.3875-1.1541-2.7835-1.2833-4.1515-0.0711-0.75301-0.0269-2.7365 0.0731-3.2803 0.27886-1.5163 1.0194-3.3773 1.8271-4.5916 0.4311-0.64808 0.59777-0.78801 1.2836-1.0776 0.98365-0.41543 1.1264-0.43863 2.8784-0.46798 1.7978-0.0302 2.0434-0.01 4.1423 0.34577 0.84469 0.14303 1.795 0.29717 2.1117 0.34254 0.73346 0.10505 2.3378 0.11895 2.8556 0.0248 1.1694-0.21276 2.2183-0.77267 3.2973-1.7602l0.40118-0.36716 0.27448 0.23148c0.52989 0.44688 1.4647 1.3902 1.8486 1.8654 1.0087 1.2487 1.795 2.7927 2.1978 4.3156 0.94483 3.5725 0.24652 7.2498-1.9283 10.155-0.7627 1.0187-1.6293 1.892-2.1304 2.1469-0.63994 0.32551-1.2233 0.44798-2.2328 0.46877-0.43556 9e-3 -0.8567 7e-3 -0.93589-6e-3zm-0.98388-5.0619c1.0368-0.0667 1.3065-0.13227 2.0398-0.49624 0.69475-0.34484 1.0925-0.47762 2.0288-0.67727 0.35034-0.0748 0.6303-0.15584 0.62215-0.18031-8e-3 -0.0245-0.43914-0.27427-0.95775-0.55512-1.0909-0.59078-1.3813-0.78266-1.3813-0.91283 0-0.15416 0.38853-0.6211 1.0733-1.2899 0.48162-0.4704 0.68179-0.63562 0.77005-0.63562 0.0656 0 0.67598 0.26132 1.3564 0.58069 1.427 0.66982 1.9096 0.86971 2.0508 0.84952 0.22493-0.0321 0.4127-0.75027 0.4127-1.5784 0-1.042-0.28267-1.3117-1.3678-1.305-0.29037 2e-3 -0.66832 0.029-0.83991 0.0604-0.49859 0.0914-1.5099 0.4444-2.1597 0.75385-0.75884 0.36139-1.2198 0.64844-2.1932 1.3658-0.87809 0.64709-1.2843 0.90488-1.4257 0.90488-0.26384 0-1.0257-1.0125-2.0225-2.6877-0.65419-1.0995-0.97213-1.5637-1.2854-1.877-0.46461-0.46456-1.1485-0.75003-2.0481-0.85493-1.0241-0.11942-3.8416-0.0838-5.196 0.0657-2.2366 0.24685-3.9708 0.71185-3.9708 1.0647 0 0.22732 0.80521 0.33485 3.7195 0.49668 2.823 0.15676 3.5462 0.24844 4.0795 0.51721 0.50096 0.25245 2.5077 2.4204 2.9652 3.2034 0.10797 0.18479 0.30026 0.49532 0.42731 0.69008s0.231 0.39423 0.231 0.44326c0 0.22163-0.93722 0.52592-2.5677 0.83365-0.50153 0.0947-0.94428 0.18363-0.98388 0.19773-0.10467 0.0373 0.194 0.20659 0.95989 0.54423 0.79337 0.34977 1.2479 0.47748 1.8859 0.52987 0.56997 0.0468 2.7011 0.0178 3.7774-0.0513z" opacity=".71"/>
    <path d="m121.6 182.71c-1.0366-0.18224-2.1504-0.50977-4.3915-1.2914-3.2211-1.1234-4.2631-1.3772-5.8073-1.4145-1.0302-0.0248-1.3984 0.0209-2.1287 0.26477-0.31286 0.10448-0.59479 0.18996-0.6265 0.18996-0.16935 0-0.79726-0.91524-1.3235-1.9291-0.54698-1.0538-0.92409-2.128-1.1575-3.2971-0.12898-0.64604-0.17869-2.4336-0.0954-3.43 0.13091-1.5658 0.92599-3.7703 1.8784-5.2084 0.39593-0.59784 0.60526-0.7977 1.0465-0.99919 1.1262-0.51429 1.2931-0.54468 3.1632-0.57588 1.8468-0.0308 1.9882-0.0183 4.4383 0.39205 1.01 0.16915 2.1494 0.33321 2.5322 0.36458 0.78306 0.0641 1.6687 0.0333 2.2587-0.0786 1.0308-0.19553 2.0574-0.75014 3.0706-1.6588l0.48215-0.43241 0.395 0.33534c0.5865 0.49794 1.5448 1.5018 1.9561 2.0491 1.2396 1.6495 2.0215 3.577 2.3064 5.6854 0.0918 0.67916 0.0788 2.3944-0.0233 3.0716-0.30548 2.0275-1.0825 3.9-2.2694 5.469-0.76053 1.0054-1.6123 1.8507-2.129 2.1129-0.88477 0.4489-2.3187 0.60155-3.5756 0.38061zm-0.65297-4.9905c1.093-0.0643 1.3958-0.13501 2.1408-0.49989 0.70417-0.34487 1.1122-0.48127 2.0278-0.67781 0.34976-0.0751 0.63593-0.14983 0.63593-0.1661 0-0.0163-0.43161-0.26506-0.95913-0.55287-1.0903-0.5949-1.3926-0.79609-1.3926-0.92697 0-0.15274 0.3907-0.62175 1.0733-1.2884 0.48398-0.4727 0.68156-0.63562 0.77085-0.63562 0.0661 0 0.65317 0.25014 1.3047 0.55586 1.292 0.6062 1.9484 0.88397 2.0892 0.88397 0.24182 0 0.40152-0.63148 0.40055-1.5838-5.6e-4 -0.53381-0.0164-0.67977-0.0899-0.82884-0.17904-0.36298-0.48958-0.47419-1.3185-0.47218-0.6743 2e-3 -1.3636 0.15841-2.248 0.51131-1.0654 0.42511-1.6958 0.78849-2.8575 1.6472-0.85775 0.63405-1.3057 0.91829-1.4473 0.91829-0.15884 0-0.6946-0.59748-1.1404-1.2718-0.22688-0.34317-0.66602-1.0451-0.97589-1.5598-0.70508-1.1713-0.90281-1.4499-1.2703-1.7902-0.48682-0.45071-1.1097-0.69664-2.0388-0.80488-0.52127-0.0608-3.3788-0.0585-4.2745 4e-3 -1.787 0.12341-3.8083 0.4974-4.4612 0.82539-0.70175 0.35257-0.41322 0.52145 1.1256 0.6588 0.30357 0.0271 1.3294 0.0932 2.2797 0.1471 2.7453 0.15545 3.5082 0.25222 4.0199 0.50985 0.44568 0.22439 2.324 2.1966 2.8043 2.9444 0.58156 0.90553 0.83081 1.3261 0.83081 1.4019 0 0.22258-0.92908 0.52217-2.5917 0.8357-0.51474 0.0971-0.95495 0.19378-0.97825 0.21493-0.0871 0.079 1.5464 0.80261 2.1253 0.94152 0.61609 0.14785 2.4861 0.17306 4.4152 0.0595z" opacity=".71"/>
    <path d="m121.51 182.7c-0.92855-0.18248-1.8349-0.43824-3.1916-0.9007-4.5325-1.5449-5.2041-1.7223-6.7912-1.7941-0.96386-0.0436-1.5233 0.023-2.2407 0.26686-0.30849 0.10485-0.59042 0.19064-0.62651 0.19064-0.26843 0-1.3438-1.7757-1.8603-3.0716-0.24461-0.6138-0.4863-1.4407-0.63368-2.1682-0.10208-0.50383-0.10991-0.65916-0.10728-2.1273 3e-3 -1.7588 0.024-1.9292 0.38635-3.1676 0.43579-1.4891 1.3633-3.3363 1.9897-3.9627 0.38033-0.38033 1.5232-0.82251 2.3416-0.906 0.64403-0.0657 2.9477-0.0654 3.5484 3.8e-4 0.25632 0.0281 1.1572 0.16772 2.0019 0.31029 0.8447 0.14256 1.795 0.2937 2.1118 0.33585 0.71532 0.0952 1.9853 0.12835 2.4957 0.0651 1.2673-0.15693 2.3617-0.6925 3.518-1.7217l0.49437-0.44004 0.22553 0.18336c0.44798 0.36421 1.5171 1.4423 1.8961 1.9119 2.2901 2.8383 3.1438 6.6308 2.2904 10.175-0.52144 2.1654-1.6207 4.1043-3.2381 5.7114-0.49901 0.49584-0.75898 0.68012-1.2427 0.88089-0.53908 0.22373-1.0123 0.30204-1.9518 0.32293-0.73634 0.0164-0.91092 5e-3 -1.4158-0.0945zm0.21597-5.0374c0.61269-0.0876 0.79302-0.14725 1.4398-0.47563 0.5797-0.29431 0.9199-0.40836 1.8238-0.6114 0.35635-0.08 0.67982-0.1573 0.7188-0.17165 0.0746-0.0275-0.10591-0.1375-1.3266-0.80891-0.85238-0.46881-1.0024-0.5878-0.95903-0.76064 0.0444-0.17698 0.39555-0.58254 1.1003-1.2709 0.45166-0.44115 0.63251-0.58793 0.72444-0.58793 0.0674 0 0.65785 0.25076 1.3122 0.55723 1.2658 0.59291 1.7944 0.81876 2.0231 0.86451 0.11374 0.0227 0.15618 6e-3 0.21607-0.0854 0.16105-0.2458 0.24028-0.71391 0.24241-1.4323 2e-3 -0.63101-8e-3 -0.71488-0.10564-0.89925-0.0712-0.13437-0.17664-0.24016-0.31103-0.31196-0.18846-0.10069-0.26119-0.1084-0.99523-0.10551-0.76551 3e-3 -0.8111 9e-3 -1.368 0.17547-1.3609 0.40713-2.404 0.9598-3.8541 2.042-0.71815 0.53596-1.1848 0.82699-1.3261 0.82699-0.14327 0-0.67887-0.57995-1.0638-1.1519-0.18654-0.27717-0.6265-0.97908-0.97769-1.5598-0.77188-1.2764-0.96841-1.5591-1.3032-1.8749-0.42481-0.40063-0.85808-0.6097-1.6016-0.77287-0.4582-0.10057-3.4624-0.1437-4.6309-0.0665-2.5486 0.16837-4.944 0.72086-4.944 1.1404 0 0.21786 0.82208 0.32424 3.8155 0.49373 1.9116 0.10823 2.5323 0.16042 3.1539 0.26519 0.78172 0.13175 0.98653 0.26112 1.9141 1.209 0.75314 0.76964 1.477 1.6165 1.7556 2.0537 0.65433 1.0272 0.7859 1.2556 0.77334 1.3422-0.0327 0.22596-0.90302 0.50427-2.5575 0.8179-0.50153 0.0951-0.94306 0.18341-0.98118 0.19631-0.0967 0.0327 0.13997 0.17013 0.83562 0.48515 1.2918 0.58495 1.3392 0.59189 3.8891 0.56861 1.4918-0.0136 2.2034-0.0388 2.5677-0.0909z" opacity=".71"/>
    <path d="m121.7 182.74c-0.87627-0.16212-2.0542-0.4918-3.4556-0.96714-4.8-1.6281-5.3042-1.7533-7.0791-1.757-1.0268-2e-3 -1.3042 0.039-2.0174 0.29929-0.22037 0.0804-0.43549 0.14623-0.47806 0.14623-0.34529 0-1.593-2.1866-2.0813-3.6476-0.47388-1.4178-0.5818-2.2221-0.54411-4.0555 0.0234-1.1381 0.0414-1.366 0.14807-1.8718 0.31117-1.4758 1.0167-3.1817 1.8012-4.3549 0.40361-0.60358 0.52443-0.71328 1.0582-0.96077 1.053-0.48827 1.5282-0.56358 3.5558-0.56358 1.5179 0 1.6902 0.0174 4.0289 0.40829 0.85789 0.14336 1.7434 0.28394 1.9678 0.31238 0.58597 0.0743 1.8273 0.0966 2.3037 0.0413 1.3087-0.15168 2.3814-0.68026 3.6029-1.7755l0.43192-0.38726 0.22633 0.18046c0.45793 0.3651 1.782 1.7383 2.1341 2.2133 0.78782 1.0627 1.3619 2.1564 1.7623 3.3574 1.4348 4.3035 0.32387 8.9713-2.8998 12.184-0.70848 0.70614-1.1642 0.96889-1.9942 1.1497-0.51879 0.113-1.9688 0.14134-2.4717 0.0483zm-0.11998-5.06c0.63277-0.0757 0.90561-0.15957 1.4923-0.45889 0.61098-0.31172 1.0152-0.44814 1.9243-0.64952 0.37778-0.0837 0.7029-0.16692 0.7225-0.18498 0.0196-0.0181-0.37742-0.2587-0.88225-0.53474-1.0083-0.55133-1.3284-0.74965-1.4013-0.86817-0.0957-0.15561 0.0843-0.40255 0.87873-1.2055 0.639-0.64587 0.82087-0.80391 0.92521-0.80391 0.11849 0 0.52685 0.17805 1.9558 0.85271 0.612 0.28895 1.3518 0.58712 1.4567 0.58712 0.22702 0 0.38273-0.61819 0.38683-1.5358 3e-3 -0.64594-5e-3 -0.71016-0.10995-0.89423-0.0656-0.11505-0.19634-0.24604-0.31139-0.31196-0.18619-0.1067-0.24527-0.11358-0.96622-0.11251-0.69084 9.6e-4 -0.8148 0.0144-1.2352 0.13331-0.86716 0.24527-1.6735 0.58593-2.4619 1.0401-0.52456 0.30218-0.7619 0.46458-1.7502 1.1976-0.6902 0.51192-1.0188 0.69523-1.1756 0.65587-0.2921-0.0733-0.93586-0.94357-1.9914-2.692-0.7879-1.3052-0.972-1.5672-1.3409-1.9088-0.48982-0.45349-1.1564-0.70672-2.1281-0.80846-0.74724-0.0782-4.0576-0.0273-5.0026 0.0771-1.5559 0.17176-3.0861 0.49218-3.6214 0.75832-0.92003 0.45738-0.36639 0.58503 3.4774 0.80181 2.8528 0.16088 3.6047 0.27233 4.0911 0.60642 0.51584 0.3543 2.2223 2.2028 2.6746 2.8973 0.45864 0.70417 0.79333 1.2739 0.79333 1.3506 0 0.21561-0.76954 0.4792-2.2842 0.78242-0.60095 0.12031-1.1307 0.21873-1.1771 0.21873-0.19936 0-0.11275 0.0984 0.23394 0.26586 1.025 0.49498 1.4802 0.66741 2.0276 0.76798 0.44032 0.0809 4.0749 0.063 4.7994-0.0237z" opacity=".71"/>
    <path d="m121.96 182.79c-1.4652-0.27182-2.3397-0.52088-4.7034-1.3395-3.0207-1.0462-4.0972-1.326-5.4462-1.4158-1.1725-0.078-1.881-3.5e-4 -2.6801 0.29396-0.20638 0.076-0.41511 0.13819-0.46386 0.13819-0.2232 0-0.85397-0.93967-1.4659-2.1837-0.43175-0.87777-0.66581-1.5029-0.88951-2.3757-0.24877-0.97062-0.29812-1.5313-0.27038-3.0716 0.0221-1.2278 0.0372-1.4268 0.14725-1.9438 0.31824-1.4947 1.0144-3.1773 1.8018-4.3548 0.4-0.59819 0.52444-0.71262 1.0375-0.954 1.0928-0.51417 1.619-0.59019 3.8666-0.55865l1.5552 0.0219 1.8718 0.31554c1.0295 0.17354 2.0661 0.3376 2.3037 0.36455 2.6519 0.3009 4.1032-0.13459 5.9397-1.7824l0.37235-0.33409 0.22757 0.18382c0.36107 0.29166 1.4294 1.3504 1.7872 1.7712 1.3376 1.5731 2.2851 3.7132 2.6242 5.9269 0.10535 0.68777 0.11804 2.4914 0.0222 3.1436-0.31462 2.1393-1.0462 3.9279-2.2833 5.5822-0.7814 1.0449-1.6404 1.8846-2.2197 2.1698-0.57136 0.28128-1.1289 0.38812-2.1266 0.4075-0.48833 0.01-0.94188 8e-3 -1.0079-5e-3zm-0.38395-5.106c0.64938-0.0774 0.75807-0.11156 1.5468-0.48705 0.68991-0.32846 1.3319-0.52978 2.2826-0.7158 0.16677-0.0327 0.29427-0.0816 0.285-0.10932-0.01-0.0276-0.45817-0.29276-0.99768-0.58912-1.1552-0.63456-1.3226-0.7583-1.2762-0.94306 0.0447-0.17807 0.39453-0.5824 1.1006-1.272 0.46356-0.45277 0.63118-0.58793 0.7292-0.58793 0.07 0 0.52008 0.18553 1.0002 0.41228 1.1489 0.54262 2.1337 0.97015 2.3211 1.0076 0.18867 0.0378 0.26608-0.0656 0.37882-0.50566 0.10167-0.39686 0.12065-1.5316 0.0299-1.7877-0.0714-0.20157-0.33092-0.45108-0.52587-0.50564-0.0721-0.0201-0.45507-0.0348-0.85102-0.0325-0.80359 5e-3 -1.2312 0.093-2.0995 0.43346-1.0879 0.42655-1.862 0.87427-3.1274 1.8087-0.85017 0.62788-1.1846 0.82257-1.3443 0.78252-0.3052-0.0766-1.0176-1.0572-2.2164-3.051-0.51793-0.86134-0.68212-1.0932-1.0032-1.4168-0.58504-0.58961-1.1518-0.82302-2.2873-0.9419-0.63258-0.0663-3.9104-0.0298-4.7198 0.0526-1.8783 0.19098-3.5696 0.56112-4.0666 0.88995-0.56604 0.3746 0.0356 0.48737 3.7066 0.69473 2.8187 0.15921 3.582 0.27268 4.0647 0.60418 0.51882 0.35635 2.2142 2.1913 2.6785 2.899 0.45156 0.68829 0.79184 1.2673 0.79184 1.3474 0 0.21894-0.78762 0.48994-2.296 0.79-0.5925 0.11787-1.1174 0.2143-1.1664 0.2143-0.049 0-0.0891 0.0191-0.0891 0.0425 0 0.0619 0.1513 0.14759 0.75807 0.42916 0.65645 0.30462 1.2703 0.51501 1.6896 0.57911 0.40839 0.0624 4.1035 0.0294 4.7034-0.042z" opacity=".71"/>
    <path d="m121.94 182.78c-1.1112-0.17714-2.3994-0.5454-4.7274-1.3514-3.425-1.1858-4.3691-1.406-6.0473-1.4103-0.98102-3e-3 -1.3292 0.0489-2.0082 0.29674-0.21683 0.0791-0.43498 0.14388-0.48477 0.14388-0.22176 0-0.8957-1.0019-1.4944-2.2215-0.42514-0.86613-0.78656-1.911-0.98303-2.8419-0.11862-0.56203-0.13391-0.74688-0.15409-1.8633-0.0272-1.5044 0.0314-2.2194 0.25248-3.0792 0.38373-1.4925 1.0084-2.9163 1.7638-4.0208 0.35498-0.51894 0.47601-0.62308 1.0204-0.87806 1.0122-0.47407 1.4888-0.54908 3.4891-0.54928 1.6204-1.5e-4 1.7766 0.0154 4.094 0.40715 2.2288 0.3768 3.0666 0.4516 4.0475 0.36136 1.4558-0.13394 2.5002-0.62679 3.8165-1.8011l0.41536-0.37055 0.17685 0.13489c0.32112 0.24493 1.5113 1.4283 1.8787 1.868 1.3194 1.5788 2.2569 3.7028 2.5739 5.8313 0.11038 0.7411 0.1448 1.9302 0.0777 2.6877-0.2332 2.6358-1.261 4.9672-3.0952 7.0206-0.53675 0.60091-1.0718 1.0566-1.456 1.2399-0.58783 0.28055-1.1328 0.38374-2.1242 0.40225-0.48834 9e-3 -0.95268 6e-3 -1.0319-7e-3zm-1.132-5.0591c1.2315-0.07 1.476-0.12534 2.3069-0.52156 0.75272-0.35894 1.0388-0.4539 1.9817-0.65787 0.33706-0.0729 0.6057-0.15401 0.59696-0.18021-9e-3 -0.0262-0.45728-0.2901-0.99679-0.58646-1.1552-0.63456-1.3226-0.7583-1.2762-0.94306 0.0447-0.17807 0.39453-0.5824 1.1006-1.272 0.46017-0.44947 0.63157-0.58793 0.72781-0.58793 0.0693 0 0.61651 0.22872 1.2162 0.50827 1.3226 0.61657 1.9181 0.87395 2.1114 0.91261 0.18708 0.0374 0.26554-0.0745 0.37417-0.53357 0.0969-0.40962 0.11264-1.5566 0.0243-1.7752-0.15579-0.3857-0.40901-0.51423-1.0682-0.54222-0.70209-0.0298-1.1863 0.0495-2.0297 0.33264-1.2079 0.40545-2.0237 0.85322-3.4331 1.8844-0.92609 0.67754-1.2503 0.86671-1.4148 0.82542-0.11822-0.0297-0.45765-0.36443-0.71021-0.70045-0.30008-0.39927-0.73464-1.0732-1.3772-2.1357-0.70264-1.1619-0.94122-1.4966-1.2841-1.8014-0.31887-0.28344-0.91451-0.55865-1.481-0.68432-0.45086-0.10001-0.58621-0.10548-2.5875-0.10449-2.3144 9.7e-4 -2.9208 0.0431-4.53 0.31296-1.2726 0.21347-2.1275 0.46257-2.3752 0.6921-0.37462 0.34718 0.15838 0.43863 3.7856 0.64954 2.5948 0.15088 3.3596 0.24732 3.8522 0.48576 0.44644 0.21612 2.2537 2.1066 2.8158 2.9455 0.46266 0.69045 0.84311 1.333 0.84311 1.424 0 0.22482-0.76448 0.48334-2.3447 0.79289-0.62417 0.12226-1.155 0.24-1.1795 0.26161-0.0588 0.0517 1.1237 0.61861 1.6764 0.80366 0.23758 0.0796 0.57234 0.16461 0.74392 0.18908 0.43787 0.0624 2.8741 0.0662 3.9314 6e-3z" opacity=".71"/>
    <path d="m121.65 182.74c-1.1057-0.20707-2.1884-0.53325-5.3033-1.5977-1.4299-0.48865-2.1694-0.70954-2.9756-0.88886-0.80187-0.17834-1.2566-0.22317-2.2545-0.22223-0.97166 9e-4 -1.2447 0.0406-1.9407 0.28252-0.2352 0.0818-0.46299 0.1486-0.5062 0.1486-0.37221 0-1.5962-2.164-2.1162-3.7414-0.40933-1.2417-0.48262-1.6958-0.51162-3.1698-0.0304-1.5448 0.0231-2.2142 0.24633-3.0825 0.39204-1.5249 0.99469-2.8999 1.7677-4.033 0.35383-0.51867 0.47491-0.62293 1.0197-0.87806 1.0122-0.47407 1.4888-0.54908 3.4891-0.54928 1.608-1.5e-4 1.798 0.0183 3.9625 0.38498 1.9947 0.33792 2.4982 0.39507 3.4911 0.39623 0.7056 8.2e-4 0.95389-0.018 1.355-0.10295 0.87032-0.18422 1.4239-0.4265 2.2277-0.97495 0.36057-0.24604 0.59188-0.4367 1.2028-0.99146l0.13008-0.11811 0.18188 0.13759c0.33314 0.25201 1.6026 1.5265 1.9567 1.9644 1.3046 1.6134 2.1732 3.6012 2.4956 5.7113 0.10723 0.70174 0.14479 2.047 0.0771 2.7597-0.22291 2.3451-1.1224 4.5479-2.6262 6.4312-0.43578 0.54577-1.2749 1.3833-1.6013 1.5982-0.3103 0.20436-0.78906 0.39192-1.2663 0.49607-0.49894 0.10887-2.0036 0.13257-2.5012 0.0394zm-0.0959-5.0621c0.65257-0.082 0.92913-0.16689 1.5689-0.48175 0.64039-0.31518 1.0598-0.45571 1.9346-0.64828 0.31676-0.0697 0.59383-0.14357 0.61569-0.16409 0.0219-0.0205-0.40539-0.28291-0.94946-0.58308-1.0739-0.59249-1.322-0.76419-1.322-0.91479 0-0.15923 0.28401-0.50003 1.0224-1.2268 0.52506-0.51683 0.7245-0.68392 0.81632-0.68392 0.11861 0 0.66859 0.23774 1.8329 0.79225 0.81415 0.38777 1.5052 0.65614 1.6067 0.62394 0.2348-0.0746 0.41142-1.1012 0.3369-1.9584-0.0656-0.75423-0.44184-0.95489-1.6536-0.88186-0.7722 0.0465-1.7989 0.36665-2.8275 0.88158-0.69123 0.34605-1.1285 0.62427-2.1133 1.3446-0.90591 0.66261-1.2312 0.85153-1.3954 0.81031-0.30236-0.0759-0.93955-0.93461-2.0154-2.7162-1.004-1.6626-1.2508-1.9519-1.9691-2.3083-0.66068-0.32784-1.0507-0.38428-2.8556-0.4132-1.6174-0.0259-2.9223 0.0249-3.9848 0.15522-1.7672 0.21674-3.2058 0.56973-3.5241 0.86471-0.37154 0.34433 0.14128 0.43115 3.8134 0.64555 2.9688 0.17334 3.5599 0.26612 4.0653 0.63808 0.54064 0.39795 2.2086 2.2132 2.6241 2.8557 0.84934 1.3136 0.87463 1.3674 0.70704 1.5031-0.24735 0.20028-1.1346 0.44884-2.549 0.71405-0.46195 0.0866-0.86007 0.17581-0.88473 0.19821-0.0579 0.0526 1.1348 0.62315 1.6947 0.81072 0.23383 0.0783 0.5738 0.1631 0.75547 0.18835 0.43409 0.0603 4.0917 0.0244 4.6498-0.0457z" opacity=".71"/>
    <path d="m121.65 182.74c-1.0295-0.18137-2.0655-0.49306-5.3993-1.6244-1.4641-0.49683-2.3125-0.74612-3.1196-0.91661-0.50885-0.10748-0.76321-0.13069-1.6754-0.15291-1.2162-0.0297-1.4869 9.7e-4 -2.2317 0.25595-0.26149 0.0894-0.51438 0.16249-0.56199 0.16249-0.1217 0-0.29385-0.19287-0.64263-0.71992-0.85823-1.2969-1.5163-2.8536-1.826-4.3195-0.11339-0.53671-0.12939-0.73684-0.1519-1.8995-0.0377-1.9438 0.0685-2.7003 0.58748-4.1898 0.54211-1.5557 1.4574-3.1864 1.9842-3.535 0.29323-0.19406 1.0979-0.5294 1.5662-0.65271 0.4209-0.11084 0.48162-0.11371 2.3757-0.1121l1.9438 2e-3 1.7278 0.29634c2.326 0.39893 2.2802 0.39236 3.1008 0.44461 2.1651 0.13785 3.5513-0.33518 5.1302-1.7506 0.25077-0.22482 0.46885-0.40892 0.48462-0.40912 0.0693-9e-4 0.79216 0.66393 1.388 1.2764 0.9419 0.96827 1.5252 1.7787 2.0881 2.901 1.271 2.5342 1.5981 5.4048 0.9288 8.151-0.39763 1.6316-1.1957 3.2398-2.289 4.613-0.48825 0.61319-1.3094 1.431-1.6726 1.6657-0.3884 0.25101-1.076 0.47436-1.6579 0.53857-0.62926 0.0694-1.609 0.0577-2.0776-0.0249zm-0.945-5.0122c1.2762-0.0619 1.5512-0.12203 2.4088-0.52629 0.74873-0.35294 1.0489-0.45348 1.9438-0.65105 0.31677-0.0699 0.5926-0.14272 0.61297-0.16174 0.0344-0.0322-0.2219-0.18504-1.4874-0.88723-0.57714-0.32023-0.78132-0.48072-0.78132-0.61415 0-0.15844 0.28505-0.50027 1.0224-1.226 0.53596-0.52755 0.72344-0.68392 0.82002-0.68392 0.0689 0 0.4546 0.15331 0.8572 0.34067 1.8938 0.88139 2.4709 1.1195 2.5965 1.0713 0.0907-0.0348 0.21345-0.32342 0.27159-0.63864 0.0724-0.39287 0.0608-1.5131-0.0178-1.701-0.15097-0.36134-0.51919-0.51215-1.2504-0.51215-0.83163 0-1.8836 0.28566-2.9721 0.80714-0.77785 0.37261-1.286 0.68825-2.2889 1.4218-0.8382 0.61308-1.2157 0.8438-1.3765 0.84138-0.27664-4e-3 -0.90631-0.84282-2.053-2.7344-0.75999-1.2536-0.9041-1.4622-1.2451-1.8014-0.52632-0.52363-1.2196-0.79247-2.2828-0.8853-0.72005-0.0629-2.7161-0.0622-3.8395 9.6e-4 -2.6028 0.14696-5.2186 0.75199-5.0582 1.17 0.0671 0.17494 0.89957 0.27589 3.5943 0.4359 2.8838 0.17123 3.6297 0.26371 4.1489 0.51432 0.36332 0.17537 1.7485 1.575 2.5235 2.5498 0.17102 0.21512 0.41546 0.56391 0.54318 0.77509 0.12773 0.21117 0.31126 0.51227 0.40786 0.66909 0.0966 0.15683 0.17561 0.32452 0.17561 0.37266 0 0.22215-0.7737 0.48424-2.3619 0.80007-0.62593 0.12446-1.1519 0.24015-1.1688 0.25707-0.063 0.063 1.3691 0.71888 1.9138 0.87652 0.15337 0.0444 0.42334 0.0975 0.59992 0.11814 0.47119 0.0549 2.6204 0.0555 3.7435 9.7e-4z" opacity=".71"/>
    <path d="m121.65 182.74c-0.86988-0.15416-1.9251-0.45624-3.7195-1.0648-4.3416-1.4725-5.0477-1.643-6.7973-1.6414-0.98947 9e-4 -1.2588 0.0398-1.9573 0.28252-0.2352 0.0818-0.4684 0.1486-0.51823 0.1486-0.12421 0-0.28745-0.18376-0.63953-0.71992-0.87099-1.3264-1.5139-2.8482-1.8247-4.3195-0.11339-0.53671-0.12939-0.73684-0.1519-1.8995-0.0154-0.79722-5e-3 -1.5116 0.0284-1.8481 0.13406-1.3729 0.80283-3.2978 1.6246-4.6759 0.61932-1.0386 0.78118-1.1919 1.657-1.5695 0.88344-0.38087 1.0117-0.39687 3.1797-0.3967 1.5697 1.3e-4 2.0029 0.0146 2.3757 0.0796 1.5005 0.26128 3.125 0.52671 3.6236 0.59212 0.75768 0.0994 2.1652 0.10108 2.7139 3e-3 1.1573-0.20631 2.177-0.74112 3.2064-1.6816 0.2469-0.2256 0.46498-0.41018 0.48462-0.41018 0.1661 0 1.8799 1.725 2.3885 2.404 2.151 2.8721 2.8858 6.5997 1.9864 10.077-0.4001 1.5469-1.1704 3.0854-2.2131 4.4203-0.44265 0.56668-1.3629 1.4851-1.7115 1.7082-0.37625 0.24071-1.0687 0.46924-1.6238 0.53591-0.58729 0.0705-1.6446 0.0583-2.1118-0.0245zm-0.19443-5.0579c0.67883-0.0685 0.97183-0.15466 1.7062-0.50209 0.71914-0.34019 0.99375-0.43203 1.8718-0.62597 0.32996-0.0729 0.61668-0.14767 0.63716-0.16619 0.0205-0.0185-0.40699-0.28042-0.94994-0.58198-1.0729-0.59588-1.319-0.76706-1.319-0.9173 0-0.15923 0.28401-0.50003 1.0224-1.2268 0.52507-0.51683 0.7245-0.68392 0.81632-0.68392 0.11617 0 0.63653 0.22348 1.7849 0.76656 0.96525 0.45648 1.5644 0.68693 1.6753 0.64437 0.0882-0.0338 0.21133-0.32587 0.26881-0.63757 0.0621-0.33681 0.061-1.4195-2e-3 -1.6453-0.067-0.24132-0.31903-0.45032-0.62107-0.5151-0.87789-0.18827-2.244 0.0976-3.625 0.75858-0.7231 0.3461-1.2628 0.68027-2.1884 1.3549-0.93906 0.68448-1.2142 0.85867-1.405 0.88964-0.13488 0.0219-0.18445-3e-3 -0.3748-0.18797-0.39025-0.37927-0.91876-1.1562-1.9346-2.844-0.55404-0.92054-0.72992-1.1689-1.0536-1.4878-0.53315-0.52537-1.2509-0.80033-2.3147-0.88671-0.76742-0.0623-2.6669-0.0622-3.7593 1.9e-4 -2.2691 0.12965-4.5831 0.58608-5.0189 0.98992-0.11978 0.11101-0.12234 0.12252-0.0461 0.20673 0.15065 0.16646 0.85906 0.24796 3.5579 0.40925 2.8701 0.17155 3.5755 0.25742 4.1301 0.50274 0.12829 0.0567 0.45092 0.33068 0.85998 0.73018 1.0156 0.99185 1.8227 1.9378 2.2244 2.6071 0.12674 0.21118 0.30905 0.51227 0.40515 0.6691s0.17472 0.32452 0.17472 0.37266c0 0.21931-0.75207 0.47664-2.2937 0.78478-0.59946 0.11983-1.1331 0.23534-1.1859 0.25667-0.0802 0.0325-0.0325 0.0708 0.29037 0.23337 0.94459 0.47564 1.5776 0.69789 2.2248 0.78114 0.40445 0.052 3.8116 0.0143 4.4415-0.0493z" opacity=".71"/>
   </g>
   <g stroke-width=".033937">
    <path d="m109.41 164.75c1.9529-1.981 4.4817-3.1761 7.3304-3.4644 0.48216-0.0488 1.7224-0.0482 2.2229 9.6e-4 1.9037 0.18752 3.736 0.82353 5.3042 1.8412l0.36642 0.23776-0.26461 0.14916c-0.62447 0.35202-1.0082 0.49921-1.6078 0.61683-0.73326 0.14382-0.94892 0.15784-2.4238 0.1575-1.4498-3.1e-4 -1.7503-0.0151-3.4446-0.16969-3.0116-0.27471-4.1759-0.3064-4.9873-0.13572-0.593 0.12474-1.5849 0.50025-2.3492 0.88933-0.24863 0.12657-0.46733 0.23585-0.486 0.24285-0.0187 7e-3 0.13406-0.1577 0.33937-0.36598z" opacity=".71"/>
    <path d="m109.51 164.68c0.62257-0.62865 1.2757-1.1436 2.1656-1.7073 0.95516-0.60503 2.4529-1.1945 3.7048-1.4581 0.90272-0.19008 1.381-0.23619 2.4435-0.2355 1.4398 9.3e-4 2.2864 0.12547 3.5634 0.52422 1.0556 0.32963 2.3183 0.93602 3.1161 1.4966l0.0957 0.0672-0.11067 0.0673c-0.45549 0.277-1.0622 0.53386-1.5049 0.63707-0.77669 0.18111-0.86658 0.1871-2.767 0.18449-1.5611-2e-3 -1.8804-0.0118-2.5792-0.0773-3.3756-0.31695-4.7919-0.37434-5.6106-0.2273-0.55598 0.0999-1.4599 0.42628-2.3441 0.84652-0.25938 0.12328-0.48054 0.22414-0.49145 0.22414-0.0109 0 0.13258-0.15392 0.31889-0.34205z" opacity=".71"/>
    <path d="m109.38 164.81c0.50611-0.52892 1.2455-1.1367 1.9684-1.618 1.3719-0.91343 3.0404-1.5438 4.836-1.827 0.47682-0.0752 2.0501-0.10613 2.7329-0.0538 1.9042 0.14616 3.8998 0.85887 5.6156 2.0056 0.0686 0.0459 9e-3 0.0907-0.40609 0.30241-0.45597 0.23294-0.90631 0.39306-1.4136 0.50265l-0.43707 0.0944-2.0871-2e-4c-2.0859-2.1e-4 -2.0878-2.7e-4 -3.2579-0.10965-2.0257-0.18934-2.5779-0.22371-3.6313-0.22601-0.91533-2e-3 -1.0308 4e-3 -1.3465 0.0737-0.5939 0.13041-1.6514 0.52275-2.3526 0.87283-0.37913 0.18928-0.41531 0.18648-0.2206-0.017z" opacity=".71"/>
    <path d="m109.29 164.92c0-0.0172 0.1718-0.19167 0.38178-0.3876 1.5719-1.4667 3.2292-2.3751 5.3027-2.9064 1.1942-0.30603 2.4646-0.40619 3.8684-0.30499 1.1546 0.0832 2.2857 0.35381 3.479 0.83218 0.64468 0.25845 1.9579 0.96156 2.181 1.1678 0.0564 0.0522 0.0456 0.0635-0.18665 0.19322-0.5321 0.29726-1.0492 0.48755-1.7059 0.62782-0.36909 0.0788-0.39646 0.0798-2.4265 0.0778-2.0343-2e-3 -2.0639-3e-3 -3.224-0.11027-2.3654-0.21892-3.8273-0.28791-4.5645-0.2154-0.68048 0.0669-1.5249 0.341-2.6394 0.85667-0.46786 0.21647-0.46587 0.21575-0.46587 0.1692z" opacity=".71"/>
    <path d="m109.26 164.95c0-0.0533 0.74193-0.74156 1.171-1.0863 1.6163-1.2988 3.6012-2.1638 5.7013-2.4846 0.57398-0.0877 2.0242-0.12271 2.7544-0.0666 1.4753 0.11357 2.8486 0.50635 4.296 1.2287 0.71999 0.35933 1.3908 0.76407 1.372 0.82781-0.0182 0.0616-0.88209 0.47381-1.2278 0.58579-0.7794 0.25247-0.82677 0.25712-2.7659 0.27176-1.8467 0.014-2.3514-5e-3 -3.8858-0.1433-1.7026-0.15384-2.4395-0.19782-3.3767-0.20152-0.65557-3e-3 -1.009 0.0101-1.1878 0.0426-0.55079 0.10014-1.5516 0.45232-2.3247 0.81808-0.46624 0.22058-0.52603 0.24417-0.52603 0.20753z" opacity=".71"/>
    <path d="m109.26 164.95c0-0.0534 0.74288-0.74215 1.1778-1.0922 1.6197-1.3033 3.7169-2.2076 5.7792-2.492 0.5371-0.0741 2.0205-0.10415 2.6696-0.0541 1.5283 0.1177 2.9192 0.52641 4.4402 1.3047 0.65396 0.33463 1.2449 0.69641 1.228 0.75185-0.0186 0.0613-0.88121 0.47342-1.228 0.5868-0.18666 0.061-0.49209 0.1448-0.67874 0.18621-0.33084 0.0734-0.39267 0.0752-2.4604 0.0744l-2.1211-9.5e-4 -1.3914-0.125c-3.0458-0.27359-4.1278-0.29059-4.9472-0.0777-0.46101 0.11977-1.1009 0.35571-1.7214 0.63469-0.28932 0.13008-0.57566 0.25857-0.63632 0.28552-0.0607 0.027-0.1103 0.035-0.1103 0.0178z" opacity=".71"/>
    <path d="m116.96 184.99c-1.665-0.14407-3.1366-0.56271-4.5645-1.2984-0.92703-0.47765-1.8012-1.084-2.5698-1.7826-0.41039-0.373-1.1266-1.1373-1.0952-1.1687 0.024-0.024 0.72719-0.0993 1.1875-0.12718 0.69156-0.0419 1.6406 0.0951 2.6128 0.37694 1.0003 0.29004 1.996 0.70415 3.7503 1.5599 1.5486 0.7554 2.3421 1.1021 3.0929 1.3516 0.35554 0.11814 1.3786 0.32861 1.7092 0.35162 0.30421 0.0212 0.7225-0.0399 1.2077-0.17629 0.36979-0.10397 0.4046-0.10335 0.17032 3e-3 -0.813 0.36916-2.0561 0.70271-3.1626 0.84859-0.40047 0.0528-1.9642 0.0939-2.3387 0.0615z" opacity=".71"/>
    <path d="m116.69 184.95c-1.8428-0.2036-3.5531-0.78611-5.0906-1.7338-0.80366-0.49535-1.4582-1.0165-2.1567-1.7173-0.29955-0.30055-0.57809-0.5944-0.61896-0.65298l-0.0744-0.10652 0.34748-0.046c0.19986-0.0264 0.65744-0.046 1.0771-0.046 0.61558 0 0.79861 0.0123 1.1708 0.0792 1.4028 0.25167 2.4734 0.64995 4.9378 1.8369 2.2127 1.0657 2.8894 1.3315 3.9876 1.5663 0.61826 0.13219 1.2206 0.15136 1.6459 0.0524 0.43975-0.10233 0.47871-0.10527 0.30544-0.023-0.41868 0.19865-1.6615 0.54227-2.4604 0.68028-0.22399 0.0387-0.62869 0.0844-0.89933 0.10148-0.474 0.03-1.9275 0.036-2.172 9e-3z" opacity=".71"/>
    <path d="m116.68 184.94c-2.2086-0.21407-4.4627-1.1375-6.2676-2.5677-0.31846-0.25234-1.629-1.5363-1.629-1.5959 0-0.0621 0.21106-0.0802 1.1708-0.10059 0.83987-0.0177 0.95309-0.0132 1.3575 0.055 1.3544 0.22827 2.3598 0.59792 4.87 1.7906 2.4433 1.1609 3.0073 1.3832 4.0724 1.6051 0.6379 0.13288 1.0749 0.15908 1.4763 0.0885 0.56014-0.0985 0.55732-0.0986 0.29282 0.0117-0.57354 0.23936-1.922 0.57406-2.6577 0.65972-0.50448 0.0588-2.2686 0.0938-2.6855 0.0535z" opacity=".71"/>
    <path d="m116.07 184.85c-2.2909-0.36837-4.4698-1.3985-6.1018-2.8848-0.59794-0.54456-1.1962-1.1694-1.1571-1.2085 0.0523-0.0523 1.0772-0.10408 1.7044-0.086 0.61153 0.0175 0.96665 0.0703 1.6783 0.24932 0.98678 0.24821 1.9777 0.64972 4.1749 1.6917 2.0866 0.9895 2.7341 1.25 3.6322 1.4612 0.79487 0.18691 1.2982 0.22441 1.7986 0.13399 0.37607-0.0679 0.40872-0.0594 0.15272 0.04-0.66502 0.25816-2.0835 0.58773-2.8168 0.65445-0.21464 0.0196-0.87896 0.0342-1.4763 0.0326-0.97227-3e-3 -1.1387-0.0114-1.5893-0.0839z" opacity=".71"/>
    <path d="m116.79 184.93c-0.44943-0.023-0.82336-0.0791-1.4593-0.21866-1.7849-0.39179-3.4966-1.2094-4.9209-2.3505-0.35564-0.28493-1.629-1.5276-1.629-1.5897 0-0.0673 0.41876-0.0955 1.4084-0.0948 0.93805 6.9e-4 0.95676 2e-3 1.4593 0.10894 1.3345 0.28376 2.1394 0.59782 5.0227 1.9599 1.9497 0.92105 2.4944 1.133 3.4812 1.3542 0.63803 0.14307 1.024 0.17669 1.4312 0.12472 0.61582-0.0786 0.59144-0.0769 0.5272-0.0365-0.10306 0.0647-0.77528 0.27338-1.3162 0.40849-0.7094 0.17719-1.1795 0.26378-1.6553 0.30488-0.49065 0.0424-1.7786 0.0583-2.3492 0.0291z" opacity=".71"/>
    <path d="m116.47 184.92c-2.1576-0.26505-4.3598-1.1881-6.0238-2.5247-0.38619-0.31022-1.6633-1.5509-1.663-1.6157 2.3e-4 -0.0682 0.41663-0.0961 1.4085-0.0945 0.9024 9.6e-4 0.97304 6e-3 1.4035 0.0953 1.293 0.26739 2.1874 0.61096 4.807 1.8464 2.0932 0.98725 2.735 1.2439 3.6143 1.4454 0.76377 0.17499 1.1271 0.2129 1.5446 0.16115 0.63913-0.0792 0.61536-0.0775 0.55216-0.0378-0.10294 0.0646-0.77497 0.27329-1.3162 0.4086-0.64951 0.16236-1.165 0.25886-1.6241 0.30402-0.32181 0.0317-2.4652 0.0411-2.7029 0.0119z" opacity=".71"/>
   </g>
  </g>
  <text x="133.73729" y="176.99692" fill="#ffffff" font-family="sans-serif" font-size="10.583px" stroke-width=".26458" style="line-height:1.25" xml:space="preserve"><tspan x="133.73729" y="176.99692" fill="#ffffff" stroke-width=".26458">Etitulación</tspan></text>
 </g>
</svg>
